M48
; DRILL file {KiCad (5.1.4-0)} date Friday, September 06, 2019 at 12:13:31 AM
; FORMAT={-:-/ absolute / inch / decimal}
; #@! TF.CreationDate,2019-09-06T00:13:31-05:00
; #@! TF.GenerationSoftware,Kicad,Pcbnew,(5.1.4-0)
; #@! TF.FileFunction,Plated,1,2,PTH
FMAT,2
INCH
T1C0.0157
T2C0.0276
T3C0.0315
T4C0.0315
T5C0.0394
T6C0.0433
T7C0.0480
T8C0.0559
T9C0.0563
%
G90
G05
T1
X4.16Y-5.0433
X5.0177Y-5.0433
X5.0394Y-3.1732
X5.04Y-2.76
T2
X5.0492Y-4.1508
X5.0492Y-4.4508
X4.2913Y-3.6614
X4.5913Y-3.6614
X4.8012Y-3.6469
X4.8012Y-3.9469
X4.8031Y-3.2283
X4.8031Y-3.5283
X4.7402Y-4.1516
X4.7402Y-4.4516
X4.9409Y-4.1516
X4.9409Y-4.4516
T3
X5.2362Y-2.874
X5.2362Y-2.974
X5.2362Y-3.074
X5.2362Y-3.174
X5.2362Y-3.274
X5.2362Y-3.374
X5.2362Y-3.474
X5.2362Y-3.574
X5.5362Y-2.874
X5.5362Y-2.974
X5.5362Y-3.074
X5.5362Y-3.174
X5.5362Y-3.274
X5.5362Y-3.374
X5.5362Y-3.474
X5.5362Y-3.574
T4
X4.147Y-2.85
T5
X4.6937Y-2.1835
X4.6937Y-2.2835
X4.7937Y-2.1835
X4.7937Y-2.2835
X4.8937Y-2.1835
X4.8937Y-2.2835
X4.9937Y-2.1835
X4.9937Y-2.2835
X5.0937Y-2.1835
X5.0937Y-2.2835
X5.1937Y-2.1835
X5.1937Y-2.2835
X5.2937Y-2.1835
X5.2937Y-2.2835
X5.3937Y-2.1835
X5.3937Y-2.2835
X5.4193Y-5.4154
X5.4193Y-5.5138
X5.4193Y-5.6122
T7
X5.3543Y-4.2913
X4.4094Y-5.2362
X4.4094Y-4.2913
T8
X5.3543Y-4.4134
X4.4094Y-5.3583
X4.4094Y-4.4134
T9
X5.3543Y-4.7402
X4.4094Y-5.685
X4.4094Y-4.7402
T6
G00X5.1378Y-5.3248
M15
G01X5.1102Y-5.3248
M16
G05
G00X5.1378Y-5.7028
M15
G01X5.1102Y-5.7028
M16
G05
T0
M30
