G04 #@! TF.GenerationSoftware,KiCad,Pcbnew,(5.1.4-0)*
G04 #@! TF.CreationDate,2019-09-06T00:12:38-05:00*
G04 #@! TF.ProjectId,attenuverter,61747465-6e75-4766-9572-7465722e6b69,rev?*
G04 #@! TF.SameCoordinates,Original*
G04 #@! TF.FileFunction,Legend,Top*
G04 #@! TF.FilePolarity,Positive*
%FSLAX46Y46*%
G04 Gerber Fmt 4.6, Leading zero omitted, Abs format (unit mm)*
G04 Created by KiCad (PCBNEW (5.1.4-0)) date 2019-09-06 00:12:38*
%MOMM*%
%LPD*%
G04 APERTURE LIST*
%ADD10C,0.450000*%
%ADD11C,0.250000*%
%ADD12C,0.150000*%
%ADD13C,0.120000*%
G04 APERTURE END LIST*
D10*
X98603142Y-51087285D02*
X100888857Y-51087285D01*
X99746000Y-52230142D02*
X99746000Y-49944428D01*
D11*
X104161000Y-54576333D02*
X103694333Y-53909666D01*
X103361000Y-54576333D02*
X103361000Y-53176333D01*
X103894333Y-53176333D01*
X104027666Y-53243000D01*
X104094333Y-53309666D01*
X104161000Y-53443000D01*
X104161000Y-53643000D01*
X104094333Y-53776333D01*
X104027666Y-53843000D01*
X103894333Y-53909666D01*
X103361000Y-53909666D01*
X105294333Y-54509666D02*
X105161000Y-54576333D01*
X104894333Y-54576333D01*
X104761000Y-54509666D01*
X104694333Y-54376333D01*
X104694333Y-53843000D01*
X104761000Y-53709666D01*
X104894333Y-53643000D01*
X105161000Y-53643000D01*
X105294333Y-53709666D01*
X105361000Y-53843000D01*
X105361000Y-53976333D01*
X104694333Y-54109666D01*
X105827666Y-53643000D02*
X106161000Y-54576333D01*
X106494333Y-53643000D01*
X108361000Y-53176333D02*
X108494333Y-53176333D01*
X108627666Y-53243000D01*
X108694333Y-53309666D01*
X108761000Y-53443000D01*
X108827666Y-53709666D01*
X108827666Y-54043000D01*
X108761000Y-54309666D01*
X108694333Y-54443000D01*
X108627666Y-54509666D01*
X108494333Y-54576333D01*
X108361000Y-54576333D01*
X108227666Y-54509666D01*
X108161000Y-54443000D01*
X108094333Y-54309666D01*
X108027666Y-54043000D01*
X108027666Y-53709666D01*
X108094333Y-53443000D01*
X108161000Y-53309666D01*
X108227666Y-53243000D01*
X108361000Y-53176333D01*
X109427666Y-54443000D02*
X109494333Y-54509666D01*
X109427666Y-54576333D01*
X109361000Y-54509666D01*
X109427666Y-54443000D01*
X109427666Y-54576333D01*
X110027666Y-53309666D02*
X110094333Y-53243000D01*
X110227666Y-53176333D01*
X110561000Y-53176333D01*
X110694333Y-53243000D01*
X110761000Y-53309666D01*
X110827666Y-53443000D01*
X110827666Y-53576333D01*
X110761000Y-53776333D01*
X109961000Y-54576333D01*
X110827666Y-54576333D01*
X100861000Y-55526333D02*
X100994333Y-55526333D01*
X101127666Y-55593000D01*
X101194333Y-55659666D01*
X101261000Y-55793000D01*
X101327666Y-56059666D01*
X101327666Y-56393000D01*
X101261000Y-56659666D01*
X101194333Y-56793000D01*
X101127666Y-56859666D01*
X100994333Y-56926333D01*
X100861000Y-56926333D01*
X100727666Y-56859666D01*
X100661000Y-56793000D01*
X100594333Y-56659666D01*
X100527666Y-56393000D01*
X100527666Y-56059666D01*
X100594333Y-55793000D01*
X100661000Y-55659666D01*
X100727666Y-55593000D01*
X100861000Y-55526333D01*
X101994333Y-56926333D02*
X102261000Y-56926333D01*
X102394333Y-56859666D01*
X102461000Y-56793000D01*
X102594333Y-56593000D01*
X102661000Y-56326333D01*
X102661000Y-55793000D01*
X102594333Y-55659666D01*
X102527666Y-55593000D01*
X102394333Y-55526333D01*
X102127666Y-55526333D01*
X101994333Y-55593000D01*
X101927666Y-55659666D01*
X101861000Y-55793000D01*
X101861000Y-56126333D01*
X101927666Y-56259666D01*
X101994333Y-56326333D01*
X102127666Y-56393000D01*
X102394333Y-56393000D01*
X102527666Y-56326333D01*
X102594333Y-56259666D01*
X102661000Y-56126333D01*
X104261000Y-55459666D02*
X103061000Y-57259666D01*
X104994333Y-55526333D02*
X105127666Y-55526333D01*
X105261000Y-55593000D01*
X105327666Y-55659666D01*
X105394333Y-55793000D01*
X105461000Y-56059666D01*
X105461000Y-56393000D01*
X105394333Y-56659666D01*
X105327666Y-56793000D01*
X105261000Y-56859666D01*
X105127666Y-56926333D01*
X104994333Y-56926333D01*
X104861000Y-56859666D01*
X104794333Y-56793000D01*
X104727666Y-56659666D01*
X104661000Y-56393000D01*
X104661000Y-56059666D01*
X104727666Y-55793000D01*
X104794333Y-55659666D01*
X104861000Y-55593000D01*
X104994333Y-55526333D01*
X106794333Y-56926333D02*
X105994333Y-56926333D01*
X106394333Y-56926333D02*
X106394333Y-55526333D01*
X106261000Y-55726333D01*
X106127666Y-55859666D01*
X105994333Y-55926333D01*
X108394333Y-55459666D02*
X107194333Y-57259666D01*
X108794333Y-55659666D02*
X108861000Y-55593000D01*
X108994333Y-55526333D01*
X109327666Y-55526333D01*
X109461000Y-55593000D01*
X109527666Y-55659666D01*
X109594333Y-55793000D01*
X109594333Y-55926333D01*
X109527666Y-56126333D01*
X108727666Y-56926333D01*
X109594333Y-56926333D01*
X110461000Y-55526333D02*
X110594333Y-55526333D01*
X110727666Y-55593000D01*
X110794333Y-55659666D01*
X110861000Y-55793000D01*
X110927666Y-56059666D01*
X110927666Y-56393000D01*
X110861000Y-56659666D01*
X110794333Y-56793000D01*
X110727666Y-56859666D01*
X110594333Y-56926333D01*
X110461000Y-56926333D01*
X110327666Y-56859666D01*
X110261000Y-56793000D01*
X110194333Y-56659666D01*
X110127666Y-56393000D01*
X110127666Y-56059666D01*
X110194333Y-55793000D01*
X110261000Y-55659666D01*
X110327666Y-55593000D01*
X110461000Y-55526333D01*
X112261000Y-56926333D02*
X111461000Y-56926333D01*
X111861000Y-56926333D02*
X111861000Y-55526333D01*
X111727666Y-55726333D01*
X111594333Y-55859666D01*
X111461000Y-55926333D01*
X112927666Y-56926333D02*
X113194333Y-56926333D01*
X113327666Y-56859666D01*
X113394333Y-56793000D01*
X113527666Y-56593000D01*
X113594333Y-56326333D01*
X113594333Y-55793000D01*
X113527666Y-55659666D01*
X113461000Y-55593000D01*
X113327666Y-55526333D01*
X113061000Y-55526333D01*
X112927666Y-55593000D01*
X112861000Y-55659666D01*
X112794333Y-55793000D01*
X112794333Y-56126333D01*
X112861000Y-56259666D01*
X112927666Y-56326333D01*
X113061000Y-56393000D01*
X113327666Y-56393000D01*
X113461000Y-56326333D01*
X113527666Y-56259666D01*
X113594333Y-56126333D01*
D12*
X136850428Y-53196904D02*
X136850428Y-52435000D01*
X137231380Y-51435000D02*
X137231380Y-52006428D01*
X137231380Y-51720714D02*
X136231380Y-51720714D01*
X136374238Y-51815952D01*
X136469476Y-51911190D01*
X136517095Y-52006428D01*
X136326619Y-51054047D02*
X136279000Y-51006428D01*
X136231380Y-50911190D01*
X136231380Y-50673095D01*
X136279000Y-50577857D01*
X136326619Y-50530238D01*
X136421857Y-50482619D01*
X136517095Y-50482619D01*
X136659952Y-50530238D01*
X137231380Y-51101666D01*
X137231380Y-50482619D01*
X136231380Y-50196904D02*
X137231380Y-49863571D01*
X136231380Y-49530238D01*
X133992000Y-51761904D02*
X133944380Y-51857142D01*
X133944380Y-52000000D01*
X133992000Y-52142857D01*
X134087238Y-52238095D01*
X134182476Y-52285714D01*
X134372952Y-52333333D01*
X134515809Y-52333333D01*
X134706285Y-52285714D01*
X134801523Y-52238095D01*
X134896761Y-52142857D01*
X134944380Y-52000000D01*
X134944380Y-51904761D01*
X134896761Y-51761904D01*
X134849142Y-51714285D01*
X134515809Y-51714285D01*
X134515809Y-51904761D01*
X134944380Y-51285714D02*
X133944380Y-51285714D01*
X134944380Y-50714285D01*
X133944380Y-50714285D01*
X134944380Y-50238095D02*
X133944380Y-50238095D01*
X133944380Y-50000000D01*
X133992000Y-49857142D01*
X134087238Y-49761904D01*
X134182476Y-49714285D01*
X134372952Y-49666666D01*
X134515809Y-49666666D01*
X134706285Y-49714285D01*
X134801523Y-49761904D01*
X134896761Y-49857142D01*
X134944380Y-50000000D01*
X134944380Y-50238095D01*
X127071380Y-51800095D02*
X127071380Y-52371523D01*
X127071380Y-52085809D02*
X126071380Y-52085809D01*
X126214238Y-52181047D01*
X126309476Y-52276285D01*
X126357095Y-52371523D01*
X126166619Y-51419142D02*
X126119000Y-51371523D01*
X126071380Y-51276285D01*
X126071380Y-51038190D01*
X126119000Y-50942952D01*
X126166619Y-50895333D01*
X126261857Y-50847714D01*
X126357095Y-50847714D01*
X126499952Y-50895333D01*
X127071380Y-51466761D01*
X127071380Y-50847714D01*
X126071380Y-50562000D02*
X127071380Y-50228666D01*
X126071380Y-49895333D01*
D10*
X140603142Y-51087285D02*
X142888857Y-51087285D01*
X141746000Y-52230142D02*
X141746000Y-49944428D01*
X98857142Y-150214285D02*
X101142857Y-150214285D01*
X100000000Y-151357142D02*
X100000000Y-149071428D01*
X140857142Y-150214285D02*
X143142857Y-150214285D01*
X142000000Y-151357142D02*
X142000000Y-149071428D01*
D11*
X103812000Y-150253666D02*
X104573904Y-150253666D01*
X103659619Y-150710809D02*
X104192952Y-149110809D01*
X104726285Y-150710809D01*
X105031047Y-149644142D02*
X105640571Y-149644142D01*
X105259619Y-149110809D02*
X105259619Y-150482238D01*
X105335809Y-150634619D01*
X105488190Y-150710809D01*
X105640571Y-150710809D01*
X105945333Y-149644142D02*
X106554857Y-149644142D01*
X106173904Y-149110809D02*
X106173904Y-150482238D01*
X106250095Y-150634619D01*
X106402476Y-150710809D01*
X106554857Y-150710809D01*
X107697714Y-150634619D02*
X107545333Y-150710809D01*
X107240571Y-150710809D01*
X107088190Y-150634619D01*
X107012000Y-150482238D01*
X107012000Y-149872714D01*
X107088190Y-149720333D01*
X107240571Y-149644142D01*
X107545333Y-149644142D01*
X107697714Y-149720333D01*
X107773904Y-149872714D01*
X107773904Y-150025095D01*
X107012000Y-150177476D01*
X108459619Y-149644142D02*
X108459619Y-150710809D01*
X108459619Y-149796523D02*
X108535809Y-149720333D01*
X108688190Y-149644142D01*
X108916761Y-149644142D01*
X109069142Y-149720333D01*
X109145333Y-149872714D01*
X109145333Y-150710809D01*
X110592952Y-149644142D02*
X110592952Y-150710809D01*
X109907238Y-149644142D02*
X109907238Y-150482238D01*
X109983428Y-150634619D01*
X110135809Y-150710809D01*
X110364380Y-150710809D01*
X110516761Y-150634619D01*
X110592952Y-150558428D01*
X112040571Y-150710809D02*
X112040571Y-149872714D01*
X111964380Y-149720333D01*
X111812000Y-149644142D01*
X111507238Y-149644142D01*
X111354857Y-149720333D01*
X112040571Y-150634619D02*
X111888190Y-150710809D01*
X111507238Y-150710809D01*
X111354857Y-150634619D01*
X111278666Y-150482238D01*
X111278666Y-150329857D01*
X111354857Y-150177476D01*
X111507238Y-150101285D01*
X111888190Y-150101285D01*
X112040571Y-150025095D01*
X112573904Y-149644142D02*
X113183428Y-149644142D01*
X112802476Y-149110809D02*
X112802476Y-150482238D01*
X112878666Y-150634619D01*
X113031047Y-150710809D01*
X113183428Y-150710809D01*
X113945333Y-150710809D02*
X113792952Y-150634619D01*
X113716761Y-150558428D01*
X113640571Y-150406047D01*
X113640571Y-149948904D01*
X113716761Y-149796523D01*
X113792952Y-149720333D01*
X113945333Y-149644142D01*
X114173904Y-149644142D01*
X114326285Y-149720333D01*
X114402476Y-149796523D01*
X114478666Y-149948904D01*
X114478666Y-150406047D01*
X114402476Y-150558428D01*
X114326285Y-150634619D01*
X114173904Y-150710809D01*
X113945333Y-150710809D01*
X115164380Y-150710809D02*
X115164380Y-149644142D01*
X115164380Y-149948904D02*
X115240571Y-149796523D01*
X115316761Y-149720333D01*
X115469142Y-149644142D01*
X115621523Y-149644142D01*
X117373904Y-150101285D02*
X118592952Y-150101285D01*
X120497714Y-150634619D02*
X120726285Y-150710809D01*
X121107238Y-150710809D01*
X121259619Y-150634619D01*
X121335809Y-150558428D01*
X121412000Y-150406047D01*
X121412000Y-150253666D01*
X121335809Y-150101285D01*
X121259619Y-150025095D01*
X121107238Y-149948904D01*
X120802476Y-149872714D01*
X120650095Y-149796523D01*
X120573904Y-149720333D01*
X120497714Y-149567952D01*
X120497714Y-149415571D01*
X120573904Y-149263190D01*
X120650095Y-149187000D01*
X120802476Y-149110809D01*
X121183428Y-149110809D01*
X121412000Y-149187000D01*
X122783428Y-150634619D02*
X122631047Y-150710809D01*
X122326285Y-150710809D01*
X122173904Y-150634619D01*
X122097714Y-150558428D01*
X122021523Y-150406047D01*
X122021523Y-149948904D01*
X122097714Y-149796523D01*
X122173904Y-149720333D01*
X122326285Y-149644142D01*
X122631047Y-149644142D01*
X122783428Y-149720333D01*
X124154857Y-150710809D02*
X124154857Y-149872714D01*
X124078666Y-149720333D01*
X123926285Y-149644142D01*
X123621523Y-149644142D01*
X123469142Y-149720333D01*
X124154857Y-150634619D02*
X124002476Y-150710809D01*
X123621523Y-150710809D01*
X123469142Y-150634619D01*
X123392952Y-150482238D01*
X123392952Y-150329857D01*
X123469142Y-150177476D01*
X123621523Y-150101285D01*
X124002476Y-150101285D01*
X124154857Y-150025095D01*
X125145333Y-150710809D02*
X124992952Y-150634619D01*
X124916761Y-150482238D01*
X124916761Y-149110809D01*
X126440571Y-150710809D02*
X126440571Y-149872714D01*
X126364380Y-149720333D01*
X126212000Y-149644142D01*
X125907238Y-149644142D01*
X125754857Y-149720333D01*
X126440571Y-150634619D02*
X126288190Y-150710809D01*
X125907238Y-150710809D01*
X125754857Y-150634619D01*
X125678666Y-150482238D01*
X125678666Y-150329857D01*
X125754857Y-150177476D01*
X125907238Y-150101285D01*
X126288190Y-150101285D01*
X126440571Y-150025095D01*
X127202476Y-150710809D02*
X127202476Y-149644142D01*
X127202476Y-149948904D02*
X127278666Y-149796523D01*
X127354857Y-149720333D01*
X127507238Y-149644142D01*
X127659619Y-149644142D01*
X129412000Y-150101285D02*
X130631047Y-150101285D01*
X132916761Y-149110809D02*
X133221523Y-149110809D01*
X133373904Y-149187000D01*
X133526285Y-149339380D01*
X133602476Y-149644142D01*
X133602476Y-150177476D01*
X133526285Y-150482238D01*
X133373904Y-150634619D01*
X133221523Y-150710809D01*
X132916761Y-150710809D01*
X132764380Y-150634619D01*
X132612000Y-150482238D01*
X132535809Y-150177476D01*
X132535809Y-149644142D01*
X132612000Y-149339380D01*
X132764380Y-149187000D01*
X132916761Y-149110809D01*
X134059619Y-149644142D02*
X134669142Y-149644142D01*
X134288190Y-150710809D02*
X134288190Y-149339380D01*
X134364380Y-149187000D01*
X134516761Y-149110809D01*
X134669142Y-149110809D01*
X134973904Y-149644142D02*
X135583428Y-149644142D01*
X135202476Y-150710809D02*
X135202476Y-149339380D01*
X135278666Y-149187000D01*
X135431047Y-149110809D01*
X135583428Y-149110809D01*
X136040571Y-150634619D02*
X136192952Y-150710809D01*
X136497714Y-150710809D01*
X136650095Y-150634619D01*
X136726285Y-150482238D01*
X136726285Y-150406047D01*
X136650095Y-150253666D01*
X136497714Y-150177476D01*
X136269142Y-150177476D01*
X136116761Y-150101285D01*
X136040571Y-149948904D01*
X136040571Y-149872714D01*
X136116761Y-149720333D01*
X136269142Y-149644142D01*
X136497714Y-149644142D01*
X136650095Y-149720333D01*
X138021523Y-150634619D02*
X137869142Y-150710809D01*
X137564380Y-150710809D01*
X137412000Y-150634619D01*
X137335809Y-150482238D01*
X137335809Y-149872714D01*
X137412000Y-149720333D01*
X137564380Y-149644142D01*
X137869142Y-149644142D01*
X138021523Y-149720333D01*
X138097714Y-149872714D01*
X138097714Y-150025095D01*
X137335809Y-150177476D01*
X138554857Y-149644142D02*
X139164380Y-149644142D01*
X138783428Y-149110809D02*
X138783428Y-150482238D01*
X138859619Y-150634619D01*
X139012000Y-150710809D01*
X139164380Y-150710809D01*
D13*
X125180000Y-135180000D02*
X125180000Y-144920000D01*
X136770000Y-135180000D02*
X136770000Y-136670000D01*
X128240000Y-135180000D02*
X125180000Y-135180000D01*
X136770000Y-144930000D02*
X132050000Y-144930000D01*
X128240000Y-144920000D02*
X125180000Y-144920000D01*
X136770000Y-135180000D02*
X132050000Y-135180000D01*
X136770000Y-143740000D02*
X136770000Y-144920000D01*
X136770000Y-140840000D02*
X136770000Y-141370000D01*
X136770000Y-138390000D02*
X136770000Y-139220000D01*
X138330000Y-58000000D02*
X138330000Y-59330000D01*
X138330000Y-59330000D02*
X137000000Y-59330000D01*
X138330000Y-56730000D02*
X135730000Y-56730000D01*
X135730000Y-56730000D02*
X135730000Y-59330000D01*
X135730000Y-59330000D02*
X117890000Y-59330000D01*
X117890000Y-54130000D02*
X117890000Y-59330000D01*
X138330000Y-54130000D02*
X117890000Y-54130000D01*
X138330000Y-54130000D02*
X138330000Y-56730000D01*
X110940000Y-132000000D02*
X111800000Y-132000000D01*
X110940000Y-132000000D02*
X110940000Y-132800000D01*
X113800000Y-139480000D02*
G75*
G03X113800000Y-139480000I-1800000J0D01*
G01*
X111650000Y-134980000D02*
X107500000Y-134980000D01*
X116500000Y-134980000D02*
X112350000Y-134980000D01*
X111500000Y-145480000D02*
X107500000Y-145480000D01*
X116500000Y-145480000D02*
X112500000Y-145480000D01*
X116500000Y-134980000D02*
X116500000Y-145480000D01*
X107500000Y-134980000D02*
X107500000Y-145480000D01*
X131500000Y-110980000D02*
X131500000Y-121480000D01*
X140500000Y-110980000D02*
X140500000Y-121480000D01*
X140500000Y-121480000D02*
X136500000Y-121480000D01*
X135500000Y-121480000D02*
X131500000Y-121480000D01*
X140500000Y-110980000D02*
X136350000Y-110980000D01*
X135650000Y-110980000D02*
X131500000Y-110980000D01*
X137800000Y-115480000D02*
G75*
G03X137800000Y-115480000I-1800000J0D01*
G01*
X134940000Y-108000000D02*
X134940000Y-108800000D01*
X134940000Y-108000000D02*
X135800000Y-108000000D01*
X107500000Y-110980000D02*
X107500000Y-121480000D01*
X116500000Y-110980000D02*
X116500000Y-121480000D01*
X116500000Y-121480000D02*
X112500000Y-121480000D01*
X111500000Y-121480000D02*
X107500000Y-121480000D01*
X116500000Y-110980000D02*
X112350000Y-110980000D01*
X111650000Y-110980000D02*
X107500000Y-110980000D01*
X113800000Y-115480000D02*
G75*
G03X113800000Y-115480000I-1800000J0D01*
G01*
X110940000Y-108000000D02*
X110940000Y-108800000D01*
X110940000Y-108000000D02*
X111800000Y-108000000D01*
X125500000Y-112130000D02*
X125500000Y-111180000D01*
X125500000Y-106390000D02*
X125500000Y-107340000D01*
X126420000Y-111180000D02*
X126420000Y-107340000D01*
X124580000Y-111180000D02*
X126420000Y-111180000D01*
X124580000Y-107340000D02*
X124580000Y-111180000D01*
X126420000Y-107340000D02*
X124580000Y-107340000D01*
X121320000Y-107340000D02*
X119480000Y-107340000D01*
X119480000Y-107340000D02*
X119480000Y-111180000D01*
X119480000Y-111180000D02*
X121320000Y-111180000D01*
X121320000Y-111180000D02*
X121320000Y-107340000D01*
X120400000Y-106390000D02*
X120400000Y-107340000D01*
X120400000Y-112130000D02*
X120400000Y-111180000D01*
X121080000Y-87730000D02*
X122920000Y-87730000D01*
X122920000Y-87730000D02*
X122920000Y-83890000D01*
X122920000Y-83890000D02*
X121080000Y-83890000D01*
X121080000Y-83890000D02*
X121080000Y-87730000D01*
X122000000Y-88680000D02*
X122000000Y-87730000D01*
X122000000Y-82940000D02*
X122000000Y-83890000D01*
X121950000Y-93570000D02*
X121950000Y-94520000D01*
X121950000Y-99310000D02*
X121950000Y-98360000D01*
X121030000Y-94520000D02*
X121030000Y-98360000D01*
X122870000Y-94520000D02*
X121030000Y-94520000D01*
X122870000Y-98360000D02*
X122870000Y-94520000D01*
X121030000Y-98360000D02*
X122870000Y-98360000D01*
X115680000Y-93000000D02*
X114730000Y-93000000D01*
X109940000Y-93000000D02*
X110890000Y-93000000D01*
X114730000Y-92080000D02*
X110890000Y-92080000D01*
X114730000Y-93920000D02*
X114730000Y-92080000D01*
X110890000Y-93920000D02*
X114730000Y-93920000D01*
X110890000Y-92080000D02*
X110890000Y-93920000D01*
X127330000Y-111160000D02*
X129170000Y-111160000D01*
X129170000Y-111160000D02*
X129170000Y-107320000D01*
X129170000Y-107320000D02*
X127330000Y-107320000D01*
X127330000Y-107320000D02*
X127330000Y-111160000D01*
X128250000Y-112110000D02*
X128250000Y-111160000D01*
X128250000Y-106370000D02*
X128250000Y-107320000D01*
X112770000Y-67880000D02*
X112770000Y-73120000D01*
X107530000Y-67880000D02*
X107530000Y-73120000D01*
X112770000Y-67880000D02*
X111390000Y-67880000D01*
X108910000Y-67880000D02*
X107530000Y-67880000D01*
X112770000Y-73120000D02*
X112189000Y-73120000D01*
X110410000Y-73120000D02*
X109890000Y-73120000D01*
X108110000Y-73120000D02*
X107530000Y-73120000D01*
X137810000Y-71670000D02*
G75*
G02X135810000Y-71670000I-1000000J0D01*
G01*
X135810000Y-71670000D02*
X134160000Y-71670000D01*
X134160000Y-71670000D02*
X134160000Y-92110000D01*
X134160000Y-92110000D02*
X139460000Y-92110000D01*
X139460000Y-92110000D02*
X139460000Y-71670000D01*
X139460000Y-71670000D02*
X137810000Y-71670000D01*
X131670000Y-71610000D02*
X131670000Y-92170000D01*
X131670000Y-92170000D02*
X141950000Y-92170000D01*
X141950000Y-92170000D02*
X141950000Y-71610000D01*
X141950000Y-71610000D02*
X131670000Y-71610000D01*
D12*
X104000466Y-70302380D02*
X103667133Y-69826190D01*
X103429038Y-70302380D02*
X103429038Y-69302380D01*
X103809990Y-69302380D01*
X103905228Y-69350000D01*
X103952847Y-69397619D01*
X104000466Y-69492857D01*
X104000466Y-69635714D01*
X103952847Y-69730952D01*
X103905228Y-69778571D01*
X103809990Y-69826190D01*
X103429038Y-69826190D01*
X104429038Y-69778571D02*
X104762371Y-69778571D01*
X104905228Y-70302380D02*
X104429038Y-70302380D01*
X104429038Y-69302380D01*
X104905228Y-69302380D01*
X105667133Y-69778571D02*
X105333800Y-69778571D01*
X105333800Y-70302380D02*
X105333800Y-69302380D01*
X105809990Y-69302380D01*
X106333800Y-69302380D02*
X106333800Y-69540476D01*
X106095704Y-69445238D02*
X106333800Y-69540476D01*
X106571895Y-69445238D01*
X106190942Y-69730952D02*
X106333800Y-69540476D01*
X106476657Y-69730952D01*
X107095704Y-69302380D02*
X107095704Y-69540476D01*
X106857609Y-69445238D02*
X107095704Y-69540476D01*
X107333800Y-69445238D01*
X106952847Y-69730952D02*
X107095704Y-69540476D01*
X107238561Y-69730952D01*
X130344761Y-147642380D02*
X130011428Y-147166190D01*
X129773333Y-147642380D02*
X129773333Y-146642380D01*
X130154285Y-146642380D01*
X130249523Y-146690000D01*
X130297142Y-146737619D01*
X130344761Y-146832857D01*
X130344761Y-146975714D01*
X130297142Y-147070952D01*
X130249523Y-147118571D01*
X130154285Y-147166190D01*
X129773333Y-147166190D01*
X130630476Y-146642380D02*
X130963809Y-147642380D01*
X131297142Y-146642380D01*
X132154285Y-147642380D02*
X131582857Y-147642380D01*
X131868571Y-147642380D02*
X131868571Y-146642380D01*
X131773333Y-146785238D01*
X131678095Y-146880476D01*
X131582857Y-146928095D01*
X139222380Y-57063333D02*
X139936666Y-57063333D01*
X140079523Y-57110952D01*
X140174761Y-57206190D01*
X140222380Y-57349047D01*
X140222380Y-57444285D01*
X139555714Y-56158571D02*
X140222380Y-56158571D01*
X139174761Y-56396666D02*
X139889047Y-56634761D01*
X139889047Y-56015714D01*
X107636666Y-133532380D02*
X107636666Y-134246666D01*
X107589047Y-134389523D01*
X107493809Y-134484761D01*
X107350952Y-134532380D01*
X107255714Y-134532380D01*
X108636666Y-134532380D02*
X108065238Y-134532380D01*
X108350952Y-134532380D02*
X108350952Y-133532380D01*
X108255714Y-133675238D01*
X108160476Y-133770476D01*
X108065238Y-133818095D01*
X107636666Y-109532380D02*
X107636666Y-110246666D01*
X107589047Y-110389523D01*
X107493809Y-110484761D01*
X107350952Y-110532380D01*
X107255714Y-110532380D01*
X108017619Y-109532380D02*
X108636666Y-109532380D01*
X108303333Y-109913333D01*
X108446190Y-109913333D01*
X108541428Y-109960952D01*
X108589047Y-110008571D01*
X108636666Y-110103809D01*
X108636666Y-110341904D01*
X108589047Y-110437142D01*
X108541428Y-110484761D01*
X108446190Y-110532380D01*
X108160476Y-110532380D01*
X108065238Y-110484761D01*
X108017619Y-110437142D01*
X127872380Y-109426666D02*
X127396190Y-109760000D01*
X127872380Y-109998095D02*
X126872380Y-109998095D01*
X126872380Y-109617142D01*
X126920000Y-109521904D01*
X126967619Y-109474285D01*
X127062857Y-109426666D01*
X127205714Y-109426666D01*
X127300952Y-109474285D01*
X127348571Y-109521904D01*
X127396190Y-109617142D01*
X127396190Y-109998095D01*
X127872380Y-108474285D02*
X127872380Y-109045714D01*
X127872380Y-108760000D02*
X126872380Y-108760000D01*
X127015238Y-108855238D01*
X127110476Y-108950476D01*
X127158095Y-109045714D01*
X122772380Y-109426666D02*
X122296190Y-109760000D01*
X122772380Y-109998095D02*
X121772380Y-109998095D01*
X121772380Y-109617142D01*
X121820000Y-109521904D01*
X121867619Y-109474285D01*
X121962857Y-109426666D01*
X122105714Y-109426666D01*
X122200952Y-109474285D01*
X122248571Y-109521904D01*
X122296190Y-109617142D01*
X122296190Y-109998095D01*
X121867619Y-109045714D02*
X121820000Y-108998095D01*
X121772380Y-108902857D01*
X121772380Y-108664761D01*
X121820000Y-108569523D01*
X121867619Y-108521904D01*
X121962857Y-108474285D01*
X122058095Y-108474285D01*
X122200952Y-108521904D01*
X122772380Y-109093333D01*
X122772380Y-108474285D01*
X120532380Y-85976666D02*
X120056190Y-86310000D01*
X120532380Y-86548095D02*
X119532380Y-86548095D01*
X119532380Y-86167142D01*
X119580000Y-86071904D01*
X119627619Y-86024285D01*
X119722857Y-85976666D01*
X119865714Y-85976666D01*
X119960952Y-86024285D01*
X120008571Y-86071904D01*
X120056190Y-86167142D01*
X120056190Y-86548095D01*
X119532380Y-85643333D02*
X119532380Y-85024285D01*
X119913333Y-85357619D01*
X119913333Y-85214761D01*
X119960952Y-85119523D01*
X120008571Y-85071904D01*
X120103809Y-85024285D01*
X120341904Y-85024285D01*
X120437142Y-85071904D01*
X120484761Y-85119523D01*
X120532380Y-85214761D01*
X120532380Y-85500476D01*
X120484761Y-85595714D01*
X120437142Y-85643333D01*
X120482380Y-96606666D02*
X120006190Y-96940000D01*
X120482380Y-97178095D02*
X119482380Y-97178095D01*
X119482380Y-96797142D01*
X119530000Y-96701904D01*
X119577619Y-96654285D01*
X119672857Y-96606666D01*
X119815714Y-96606666D01*
X119910952Y-96654285D01*
X119958571Y-96701904D01*
X120006190Y-96797142D01*
X120006190Y-97178095D01*
X119815714Y-95749523D02*
X120482380Y-95749523D01*
X119434761Y-95987619D02*
X120149047Y-96225714D01*
X120149047Y-95606666D01*
X112643333Y-91532380D02*
X112310000Y-91056190D01*
X112071904Y-91532380D02*
X112071904Y-90532380D01*
X112452857Y-90532380D01*
X112548095Y-90580000D01*
X112595714Y-90627619D01*
X112643333Y-90722857D01*
X112643333Y-90865714D01*
X112595714Y-90960952D01*
X112548095Y-91008571D01*
X112452857Y-91056190D01*
X112071904Y-91056190D01*
X113548095Y-90532380D02*
X113071904Y-90532380D01*
X113024285Y-91008571D01*
X113071904Y-90960952D01*
X113167142Y-90913333D01*
X113405238Y-90913333D01*
X113500476Y-90960952D01*
X113548095Y-91008571D01*
X113595714Y-91103809D01*
X113595714Y-91341904D01*
X113548095Y-91437142D01*
X113500476Y-91484761D01*
X113405238Y-91532380D01*
X113167142Y-91532380D01*
X113071904Y-91484761D01*
X113024285Y-91437142D01*
X114352380Y-71095238D02*
X113876190Y-71428571D01*
X114352380Y-71666666D02*
X113352380Y-71666666D01*
X113352380Y-71285714D01*
X113400000Y-71190476D01*
X113447619Y-71142857D01*
X113542857Y-71095238D01*
X113685714Y-71095238D01*
X113780952Y-71142857D01*
X113828571Y-71190476D01*
X113876190Y-71285714D01*
X113876190Y-71666666D01*
X113352380Y-70809523D02*
X114352380Y-70476190D01*
X113352380Y-70142857D01*
X113447619Y-69857142D02*
X113400000Y-69809523D01*
X113352380Y-69714285D01*
X113352380Y-69476190D01*
X113400000Y-69380952D01*
X113447619Y-69333333D01*
X113542857Y-69285714D01*
X113638095Y-69285714D01*
X113780952Y-69333333D01*
X114352380Y-69904761D01*
X114352380Y-69285714D01*
X136048095Y-70122380D02*
X136048095Y-70931904D01*
X136095714Y-71027142D01*
X136143333Y-71074761D01*
X136238571Y-71122380D01*
X136429047Y-71122380D01*
X136524285Y-71074761D01*
X136571904Y-71027142D01*
X136619523Y-70931904D01*
X136619523Y-70122380D01*
X137619523Y-71122380D02*
X137048095Y-71122380D01*
X137333809Y-71122380D02*
X137333809Y-70122380D01*
X137238571Y-70265238D01*
X137143333Y-70360476D01*
X137048095Y-70408095D01*
M02*
