G04 #@! TF.GenerationSoftware,KiCad,Pcbnew,(5.1.4-0)*
G04 #@! TF.CreationDate,2019-09-06T00:12:38-05:00*
G04 #@! TF.ProjectId,attenuverter,61747465-6e75-4766-9572-7465722e6b69,rev?*
G04 #@! TF.SameCoordinates,Original*
G04 #@! TF.FileFunction,Soldermask,Top*
G04 #@! TF.FilePolarity,Negative*
%FSLAX46Y46*%
G04 Gerber Fmt 4.6, Leading zero omitted, Abs format (unit mm)*
G04 Created by KiCad (PCBNEW (5.1.4-0)) date 2019-09-06 00:12:38*
%MOMM*%
%LPD*%
G04 APERTURE LIST*
%ADD10C,0.100000*%
G04 APERTURE END LIST*
D10*
G36*
X130548412Y-143445805D02*
G01*
X130686604Y-143459416D01*
X130952579Y-143540099D01*
X130952581Y-143540100D01*
X131197701Y-143671119D01*
X131412556Y-143847444D01*
X131588881Y-144062299D01*
X131710633Y-144290082D01*
X131719901Y-144307421D01*
X131800584Y-144573396D01*
X131827827Y-144850000D01*
X131800584Y-145126604D01*
X131719901Y-145392579D01*
X131719900Y-145392581D01*
X131588881Y-145637701D01*
X131412556Y-145852556D01*
X131197701Y-146028881D01*
X130952581Y-146159900D01*
X130952579Y-146159901D01*
X130686604Y-146240584D01*
X130548412Y-146254195D01*
X130479317Y-146261000D01*
X129820683Y-146261000D01*
X129751588Y-146254195D01*
X129613396Y-146240584D01*
X129347421Y-146159901D01*
X129347419Y-146159900D01*
X129102299Y-146028881D01*
X128887444Y-145852556D01*
X128711119Y-145637701D01*
X128580100Y-145392581D01*
X128580099Y-145392579D01*
X128499416Y-145126604D01*
X128472173Y-144850000D01*
X128499416Y-144573396D01*
X128580099Y-144307421D01*
X128589367Y-144290082D01*
X128711119Y-144062299D01*
X128887444Y-143847444D01*
X129102299Y-143671119D01*
X129347419Y-143540100D01*
X129347421Y-143540099D01*
X129613396Y-143459416D01*
X129751588Y-143445805D01*
X129820683Y-143439000D01*
X130479317Y-143439000D01*
X130548412Y-143445805D01*
X130548412Y-143445805D01*
G37*
G36*
X112253655Y-143312591D02*
G01*
X112325525Y-143326887D01*
X112528624Y-143411013D01*
X112711409Y-143533146D01*
X112866854Y-143688591D01*
X112988987Y-143871376D01*
X113073113Y-144074475D01*
X113116000Y-144290084D01*
X113116000Y-144509916D01*
X113073113Y-144725525D01*
X112988987Y-144928624D01*
X112866854Y-145111409D01*
X112711409Y-145266854D01*
X112528624Y-145388987D01*
X112325525Y-145473113D01*
X112253655Y-145487409D01*
X112109918Y-145516000D01*
X111890082Y-145516000D01*
X111746345Y-145487409D01*
X111674475Y-145473113D01*
X111471376Y-145388987D01*
X111288591Y-145266854D01*
X111133146Y-145111409D01*
X111011013Y-144928624D01*
X110926887Y-144725525D01*
X110884000Y-144509916D01*
X110884000Y-144290084D01*
X110926887Y-144074475D01*
X111011013Y-143871376D01*
X111133146Y-143688591D01*
X111288591Y-143533146D01*
X111471376Y-143411013D01*
X111674475Y-143326887D01*
X111746345Y-143312591D01*
X111890082Y-143284000D01*
X112109918Y-143284000D01*
X112253655Y-143312591D01*
X112253655Y-143312591D01*
G37*
G36*
X138601000Y-143501000D02*
G01*
X136699000Y-143501000D01*
X136699000Y-141599000D01*
X138601000Y-141599000D01*
X138601000Y-143501000D01*
X138601000Y-143501000D01*
G37*
G36*
X137927395Y-139135546D02*
G01*
X138100466Y-139207234D01*
X138100467Y-139207235D01*
X138256227Y-139311310D01*
X138388690Y-139443773D01*
X138388691Y-139443775D01*
X138492766Y-139599534D01*
X138564454Y-139772605D01*
X138601000Y-139956333D01*
X138601000Y-140143667D01*
X138564454Y-140327395D01*
X138492766Y-140500466D01*
X138492765Y-140500467D01*
X138388690Y-140656227D01*
X138256227Y-140788690D01*
X138177818Y-140841081D01*
X138100466Y-140892766D01*
X137927395Y-140964454D01*
X137743667Y-141001000D01*
X137556333Y-141001000D01*
X137372605Y-140964454D01*
X137199534Y-140892766D01*
X137122182Y-140841081D01*
X137043773Y-140788690D01*
X136911310Y-140656227D01*
X136807235Y-140500467D01*
X136807234Y-140500466D01*
X136735546Y-140327395D01*
X136699000Y-140143667D01*
X136699000Y-139956333D01*
X136735546Y-139772605D01*
X136807234Y-139599534D01*
X136911309Y-139443775D01*
X136911310Y-139443773D01*
X137043773Y-139311310D01*
X137199533Y-139207235D01*
X137199534Y-139207234D01*
X137372605Y-139135546D01*
X137556333Y-139099000D01*
X137743667Y-139099000D01*
X137927395Y-139135546D01*
X137927395Y-139135546D01*
G37*
G36*
X137927395Y-136635546D02*
G01*
X138100466Y-136707234D01*
X138100467Y-136707235D01*
X138256227Y-136811310D01*
X138388690Y-136943773D01*
X138388691Y-136943775D01*
X138492766Y-137099534D01*
X138564454Y-137272605D01*
X138601000Y-137456333D01*
X138601000Y-137643667D01*
X138564454Y-137827395D01*
X138492766Y-138000466D01*
X138492765Y-138000467D01*
X138388690Y-138156227D01*
X138256227Y-138288690D01*
X138177818Y-138341081D01*
X138100466Y-138392766D01*
X137927395Y-138464454D01*
X137743667Y-138501000D01*
X137556333Y-138501000D01*
X137372605Y-138464454D01*
X137199534Y-138392766D01*
X137122182Y-138341081D01*
X137043773Y-138288690D01*
X136911310Y-138156227D01*
X136807235Y-138000467D01*
X136807234Y-138000466D01*
X136735546Y-137827395D01*
X136699000Y-137643667D01*
X136699000Y-137456333D01*
X136735546Y-137272605D01*
X136807234Y-137099534D01*
X136911309Y-136943775D01*
X136911310Y-136943773D01*
X137043773Y-136811310D01*
X137199533Y-136707235D01*
X137199534Y-136707234D01*
X137372605Y-136635546D01*
X137556333Y-136599000D01*
X137743667Y-136599000D01*
X137927395Y-136635546D01*
X137927395Y-136635546D01*
G37*
G36*
X112253655Y-135012591D02*
G01*
X112325525Y-135026887D01*
X112528624Y-135111013D01*
X112711409Y-135233146D01*
X112866854Y-135388591D01*
X112988987Y-135571376D01*
X112988987Y-135571377D01*
X113073113Y-135774476D01*
X113116000Y-135990082D01*
X113116000Y-136209918D01*
X113087409Y-136353655D01*
X113073113Y-136425525D01*
X112988987Y-136628624D01*
X112866854Y-136811409D01*
X112711409Y-136966854D01*
X112528624Y-137088987D01*
X112325525Y-137173113D01*
X112253655Y-137187409D01*
X112109918Y-137216000D01*
X111890082Y-137216000D01*
X111746345Y-137187409D01*
X111674475Y-137173113D01*
X111471376Y-137088987D01*
X111288591Y-136966854D01*
X111133146Y-136811409D01*
X111011013Y-136628624D01*
X110926887Y-136425525D01*
X110912591Y-136353655D01*
X110884000Y-136209918D01*
X110884000Y-135990082D01*
X110926887Y-135774476D01*
X111011013Y-135571377D01*
X111011013Y-135571376D01*
X111133146Y-135388591D01*
X111288591Y-135233146D01*
X111471376Y-135111013D01*
X111674475Y-135026887D01*
X111746345Y-135012591D01*
X111890082Y-134984000D01*
X112109918Y-134984000D01*
X112253655Y-135012591D01*
X112253655Y-135012591D01*
G37*
G36*
X130548412Y-133845805D02*
G01*
X130686604Y-133859416D01*
X130952579Y-133940099D01*
X130952581Y-133940100D01*
X131197701Y-134071119D01*
X131412556Y-134247444D01*
X131588880Y-134462298D01*
X131719901Y-134707421D01*
X131800584Y-134973396D01*
X131827827Y-135250000D01*
X131800584Y-135526604D01*
X131719901Y-135792579D01*
X131719900Y-135792581D01*
X131588881Y-136037701D01*
X131412556Y-136252556D01*
X131197701Y-136428881D01*
X130952581Y-136559900D01*
X130952579Y-136559901D01*
X130686604Y-136640584D01*
X130548412Y-136654195D01*
X130479317Y-136661000D01*
X129820683Y-136661000D01*
X129751588Y-136654195D01*
X129613396Y-136640584D01*
X129347421Y-136559901D01*
X129347419Y-136559900D01*
X129102299Y-136428881D01*
X128887444Y-136252556D01*
X128711119Y-136037701D01*
X128580100Y-135792581D01*
X128580099Y-135792579D01*
X128499416Y-135526604D01*
X128472173Y-135250000D01*
X128499416Y-134973396D01*
X128580099Y-134707421D01*
X128711120Y-134462298D01*
X128887444Y-134247444D01*
X129102299Y-134071119D01*
X129347419Y-133940100D01*
X129347421Y-133940099D01*
X129613396Y-133859416D01*
X129751588Y-133845805D01*
X129820683Y-133839000D01*
X130479317Y-133839000D01*
X130548412Y-133845805D01*
X130548412Y-133845805D01*
G37*
G36*
X113016000Y-133966000D02*
G01*
X110984000Y-133966000D01*
X110984000Y-132034000D01*
X113016000Y-132034000D01*
X113016000Y-133966000D01*
X113016000Y-133966000D01*
G37*
G36*
X136253655Y-119312591D02*
G01*
X136325525Y-119326887D01*
X136528624Y-119411013D01*
X136711409Y-119533146D01*
X136866854Y-119688591D01*
X136988987Y-119871376D01*
X137073113Y-120074475D01*
X137116000Y-120290084D01*
X137116000Y-120509916D01*
X137073113Y-120725525D01*
X136988987Y-120928624D01*
X136866854Y-121111409D01*
X136711409Y-121266854D01*
X136528624Y-121388987D01*
X136325525Y-121473113D01*
X136253655Y-121487409D01*
X136109918Y-121516000D01*
X135890082Y-121516000D01*
X135746345Y-121487409D01*
X135674475Y-121473113D01*
X135471376Y-121388987D01*
X135288591Y-121266854D01*
X135133146Y-121111409D01*
X135011013Y-120928624D01*
X134926887Y-120725525D01*
X134884000Y-120509916D01*
X134884000Y-120290084D01*
X134926887Y-120074475D01*
X135011013Y-119871376D01*
X135133146Y-119688591D01*
X135288591Y-119533146D01*
X135471376Y-119411013D01*
X135674475Y-119326887D01*
X135746345Y-119312591D01*
X135890082Y-119284000D01*
X136109918Y-119284000D01*
X136253655Y-119312591D01*
X136253655Y-119312591D01*
G37*
G36*
X112253655Y-119312591D02*
G01*
X112325525Y-119326887D01*
X112528624Y-119411013D01*
X112711409Y-119533146D01*
X112866854Y-119688591D01*
X112988987Y-119871376D01*
X113073113Y-120074475D01*
X113116000Y-120290084D01*
X113116000Y-120509916D01*
X113073113Y-120725525D01*
X112988987Y-120928624D01*
X112866854Y-121111409D01*
X112711409Y-121266854D01*
X112528624Y-121388987D01*
X112325525Y-121473113D01*
X112253655Y-121487409D01*
X112109918Y-121516000D01*
X111890082Y-121516000D01*
X111746345Y-121487409D01*
X111674475Y-121473113D01*
X111471376Y-121388987D01*
X111288591Y-121266854D01*
X111133146Y-121111409D01*
X111011013Y-120928624D01*
X110926887Y-120725525D01*
X110884000Y-120509916D01*
X110884000Y-120290084D01*
X110926887Y-120074475D01*
X111011013Y-119871376D01*
X111133146Y-119688591D01*
X111288591Y-119533146D01*
X111471376Y-119411013D01*
X111674475Y-119326887D01*
X111746345Y-119312591D01*
X111890082Y-119284000D01*
X112109918Y-119284000D01*
X112253655Y-119312591D01*
X112253655Y-119312591D01*
G37*
G36*
X120473665Y-112322622D02*
G01*
X120547222Y-112329867D01*
X120688786Y-112372810D01*
X120819252Y-112442546D01*
X120848634Y-112466659D01*
X120933607Y-112536393D01*
X121003008Y-112620960D01*
X121027454Y-112650748D01*
X121097190Y-112781214D01*
X121140133Y-112922778D01*
X121154633Y-113070000D01*
X121140133Y-113217222D01*
X121097190Y-113358786D01*
X121027454Y-113489252D01*
X121003008Y-113519040D01*
X120933607Y-113603607D01*
X120849040Y-113673008D01*
X120819252Y-113697454D01*
X120688786Y-113767190D01*
X120547222Y-113810133D01*
X120473665Y-113817378D01*
X120436888Y-113821000D01*
X120363112Y-113821000D01*
X120326335Y-113817378D01*
X120252778Y-113810133D01*
X120111214Y-113767190D01*
X119980748Y-113697454D01*
X119950960Y-113673008D01*
X119866393Y-113603607D01*
X119796992Y-113519040D01*
X119772546Y-113489252D01*
X119702810Y-113358786D01*
X119659867Y-113217222D01*
X119645367Y-113070000D01*
X119659867Y-112922778D01*
X119702810Y-112781214D01*
X119772546Y-112650748D01*
X119796992Y-112620960D01*
X119866393Y-112536393D01*
X119951366Y-112466659D01*
X119980748Y-112442546D01*
X120111214Y-112372810D01*
X120252778Y-112329867D01*
X120326335Y-112322622D01*
X120363112Y-112319000D01*
X120436888Y-112319000D01*
X120473665Y-112322622D01*
X120473665Y-112322622D01*
G37*
G36*
X125573665Y-112322622D02*
G01*
X125647222Y-112329867D01*
X125788786Y-112372810D01*
X125919252Y-112442546D01*
X125948634Y-112466659D01*
X126033607Y-112536393D01*
X126103008Y-112620960D01*
X126127454Y-112650748D01*
X126197190Y-112781214D01*
X126240133Y-112922778D01*
X126254633Y-113070000D01*
X126240133Y-113217222D01*
X126197190Y-113358786D01*
X126127454Y-113489252D01*
X126103008Y-113519040D01*
X126033607Y-113603607D01*
X125949040Y-113673008D01*
X125919252Y-113697454D01*
X125788786Y-113767190D01*
X125647222Y-113810133D01*
X125573665Y-113817378D01*
X125536888Y-113821000D01*
X125463112Y-113821000D01*
X125426335Y-113817378D01*
X125352778Y-113810133D01*
X125211214Y-113767190D01*
X125080748Y-113697454D01*
X125050960Y-113673008D01*
X124966393Y-113603607D01*
X124896992Y-113519040D01*
X124872546Y-113489252D01*
X124802810Y-113358786D01*
X124759867Y-113217222D01*
X124745367Y-113070000D01*
X124759867Y-112922778D01*
X124802810Y-112781214D01*
X124872546Y-112650748D01*
X124896992Y-112620960D01*
X124966393Y-112536393D01*
X125051366Y-112466659D01*
X125080748Y-112442546D01*
X125211214Y-112372810D01*
X125352778Y-112329867D01*
X125426335Y-112322622D01*
X125463112Y-112319000D01*
X125536888Y-112319000D01*
X125573665Y-112322622D01*
X125573665Y-112322622D01*
G37*
G36*
X128424516Y-112319000D02*
G01*
X128469059Y-112327860D01*
X128605732Y-112384472D01*
X128728735Y-112466660D01*
X128833340Y-112571265D01*
X128833341Y-112571267D01*
X128915529Y-112694270D01*
X128972140Y-112830941D01*
X129001000Y-112976032D01*
X129001000Y-113123968D01*
X128982694Y-113216000D01*
X128972140Y-113269059D01*
X128915528Y-113405732D01*
X128833340Y-113528735D01*
X128728735Y-113633340D01*
X128605732Y-113715528D01*
X128605731Y-113715529D01*
X128605730Y-113715529D01*
X128469059Y-113772140D01*
X128323968Y-113801000D01*
X128176032Y-113801000D01*
X128030941Y-113772140D01*
X127894270Y-113715529D01*
X127894269Y-113715529D01*
X127894268Y-113715528D01*
X127771265Y-113633340D01*
X127666660Y-113528735D01*
X127584472Y-113405732D01*
X127527860Y-113269059D01*
X127517306Y-113216000D01*
X127499000Y-113123968D01*
X127499000Y-112976032D01*
X127527860Y-112830941D01*
X127584471Y-112694270D01*
X127666659Y-112571267D01*
X127666660Y-112571265D01*
X127771265Y-112466660D01*
X127894268Y-112384472D01*
X128030941Y-112327860D01*
X128075484Y-112319000D01*
X128176032Y-112299000D01*
X128323968Y-112299000D01*
X128424516Y-112319000D01*
X128424516Y-112319000D01*
G37*
G36*
X136253655Y-111012591D02*
G01*
X136325525Y-111026887D01*
X136528624Y-111111013D01*
X136711409Y-111233146D01*
X136866854Y-111388591D01*
X136988987Y-111571376D01*
X137073113Y-111774475D01*
X137116000Y-111990084D01*
X137116000Y-112209916D01*
X137073113Y-112425525D01*
X136988987Y-112628624D01*
X136866854Y-112811409D01*
X136711409Y-112966854D01*
X136528624Y-113088987D01*
X136325525Y-113173113D01*
X136253655Y-113187409D01*
X136109918Y-113216000D01*
X135890082Y-113216000D01*
X135746345Y-113187409D01*
X135674475Y-113173113D01*
X135471376Y-113088987D01*
X135288591Y-112966854D01*
X135133146Y-112811409D01*
X135011013Y-112628624D01*
X134926887Y-112425525D01*
X134884000Y-112209916D01*
X134884000Y-111990084D01*
X134926887Y-111774475D01*
X135011013Y-111571376D01*
X135133146Y-111388591D01*
X135288591Y-111233146D01*
X135471376Y-111111013D01*
X135674475Y-111026887D01*
X135746345Y-111012591D01*
X135890082Y-110984000D01*
X136109918Y-110984000D01*
X136253655Y-111012591D01*
X136253655Y-111012591D01*
G37*
G36*
X112253655Y-111012591D02*
G01*
X112325525Y-111026887D01*
X112528624Y-111111013D01*
X112711409Y-111233146D01*
X112866854Y-111388591D01*
X112988987Y-111571376D01*
X113073113Y-111774475D01*
X113116000Y-111990084D01*
X113116000Y-112209916D01*
X113073113Y-112425525D01*
X112988987Y-112628624D01*
X112866854Y-112811409D01*
X112711409Y-112966854D01*
X112528624Y-113088987D01*
X112325525Y-113173113D01*
X112253655Y-113187409D01*
X112109918Y-113216000D01*
X111890082Y-113216000D01*
X111746345Y-113187409D01*
X111674475Y-113173113D01*
X111471376Y-113088987D01*
X111288591Y-112966854D01*
X111133146Y-112811409D01*
X111011013Y-112628624D01*
X110926887Y-112425525D01*
X110884000Y-112209916D01*
X110884000Y-111990084D01*
X110926887Y-111774475D01*
X111011013Y-111571376D01*
X111133146Y-111388591D01*
X111288591Y-111233146D01*
X111471376Y-111111013D01*
X111674475Y-111026887D01*
X111746345Y-111012591D01*
X111890082Y-110984000D01*
X112109918Y-110984000D01*
X112253655Y-111012591D01*
X112253655Y-111012591D01*
G37*
G36*
X137016000Y-109966000D02*
G01*
X134984000Y-109966000D01*
X134984000Y-108034000D01*
X137016000Y-108034000D01*
X137016000Y-109966000D01*
X137016000Y-109966000D01*
G37*
G36*
X113016000Y-109966000D02*
G01*
X110984000Y-109966000D01*
X110984000Y-108034000D01*
X113016000Y-108034000D01*
X113016000Y-109966000D01*
X113016000Y-109966000D01*
G37*
G36*
X125719059Y-104727860D02*
G01*
X125855732Y-104784472D01*
X125978735Y-104866660D01*
X126083340Y-104971265D01*
X126165528Y-105094268D01*
X126222140Y-105230941D01*
X126251000Y-105376033D01*
X126251000Y-105523967D01*
X126222140Y-105669059D01*
X126165528Y-105805732D01*
X126083340Y-105928735D01*
X125978735Y-106033340D01*
X125855732Y-106115528D01*
X125855731Y-106115529D01*
X125855730Y-106115529D01*
X125719059Y-106172140D01*
X125573968Y-106201000D01*
X125426032Y-106201000D01*
X125280941Y-106172140D01*
X125144270Y-106115529D01*
X125144269Y-106115529D01*
X125144268Y-106115528D01*
X125021265Y-106033340D01*
X124916660Y-105928735D01*
X124834472Y-105805732D01*
X124777860Y-105669059D01*
X124749000Y-105523967D01*
X124749000Y-105376033D01*
X124777860Y-105230941D01*
X124834472Y-105094268D01*
X124916660Y-104971265D01*
X125021265Y-104866660D01*
X125144268Y-104784472D01*
X125280941Y-104727860D01*
X125426032Y-104699000D01*
X125573968Y-104699000D01*
X125719059Y-104727860D01*
X125719059Y-104727860D01*
G37*
G36*
X120619059Y-104727860D02*
G01*
X120755732Y-104784472D01*
X120878735Y-104866660D01*
X120983340Y-104971265D01*
X121065528Y-105094268D01*
X121122140Y-105230941D01*
X121151000Y-105376033D01*
X121151000Y-105523967D01*
X121122140Y-105669059D01*
X121065528Y-105805732D01*
X120983340Y-105928735D01*
X120878735Y-106033340D01*
X120755732Y-106115528D01*
X120755731Y-106115529D01*
X120755730Y-106115529D01*
X120619059Y-106172140D01*
X120473968Y-106201000D01*
X120326032Y-106201000D01*
X120180941Y-106172140D01*
X120044270Y-106115529D01*
X120044269Y-106115529D01*
X120044268Y-106115528D01*
X119921265Y-106033340D01*
X119816660Y-105928735D01*
X119734472Y-105805732D01*
X119677860Y-105669059D01*
X119649000Y-105523967D01*
X119649000Y-105376033D01*
X119677860Y-105230941D01*
X119734472Y-105094268D01*
X119816660Y-104971265D01*
X119921265Y-104866660D01*
X120044268Y-104784472D01*
X120180941Y-104727860D01*
X120326032Y-104699000D01*
X120473968Y-104699000D01*
X120619059Y-104727860D01*
X120619059Y-104727860D01*
G37*
G36*
X128323665Y-104682622D02*
G01*
X128397222Y-104689867D01*
X128538786Y-104732810D01*
X128669252Y-104802546D01*
X128699040Y-104826992D01*
X128783607Y-104896393D01*
X128845051Y-104971265D01*
X128877454Y-105010748D01*
X128947190Y-105141214D01*
X128990133Y-105282778D01*
X129004633Y-105430000D01*
X128990133Y-105577222D01*
X128947190Y-105718786D01*
X128877454Y-105849252D01*
X128853008Y-105879040D01*
X128783607Y-105963607D01*
X128699040Y-106033008D01*
X128669252Y-106057454D01*
X128538786Y-106127190D01*
X128397222Y-106170133D01*
X128323665Y-106177378D01*
X128286888Y-106181000D01*
X128213112Y-106181000D01*
X128176335Y-106177378D01*
X128102778Y-106170133D01*
X127961214Y-106127190D01*
X127830748Y-106057454D01*
X127800960Y-106033008D01*
X127716393Y-105963607D01*
X127646992Y-105879040D01*
X127622546Y-105849252D01*
X127552810Y-105718786D01*
X127509867Y-105577222D01*
X127495367Y-105430000D01*
X127509867Y-105282778D01*
X127552810Y-105141214D01*
X127622546Y-105010748D01*
X127654949Y-104971265D01*
X127716393Y-104896393D01*
X127800960Y-104826992D01*
X127830748Y-104802546D01*
X127961214Y-104732810D01*
X128102778Y-104689867D01*
X128176335Y-104682622D01*
X128213112Y-104679000D01*
X128286888Y-104679000D01*
X128323665Y-104682622D01*
X128323665Y-104682622D01*
G37*
G36*
X122169059Y-99527860D02*
G01*
X122305732Y-99584472D01*
X122428735Y-99666660D01*
X122533340Y-99771265D01*
X122615528Y-99894268D01*
X122672140Y-100030941D01*
X122701000Y-100176033D01*
X122701000Y-100323967D01*
X122672140Y-100469059D01*
X122615528Y-100605732D01*
X122533340Y-100728735D01*
X122428735Y-100833340D01*
X122305732Y-100915528D01*
X122305731Y-100915529D01*
X122305730Y-100915529D01*
X122169059Y-100972140D01*
X122023968Y-101001000D01*
X121876032Y-101001000D01*
X121730941Y-100972140D01*
X121594270Y-100915529D01*
X121594269Y-100915529D01*
X121594268Y-100915528D01*
X121471265Y-100833340D01*
X121366660Y-100728735D01*
X121284472Y-100605732D01*
X121227860Y-100469059D01*
X121199000Y-100323967D01*
X121199000Y-100176033D01*
X121227860Y-100030941D01*
X121284472Y-99894268D01*
X121366660Y-99771265D01*
X121471265Y-99666660D01*
X121594268Y-99584472D01*
X121730941Y-99527860D01*
X121876032Y-99499000D01*
X122023968Y-99499000D01*
X122169059Y-99527860D01*
X122169059Y-99527860D01*
G37*
G36*
X109219059Y-92277860D02*
G01*
X109279294Y-92302810D01*
X109355732Y-92334472D01*
X109478735Y-92416660D01*
X109583340Y-92521265D01*
X109665528Y-92644268D01*
X109722140Y-92780941D01*
X109751000Y-92926033D01*
X109751000Y-93073967D01*
X109722140Y-93219059D01*
X109665528Y-93355732D01*
X109583340Y-93478735D01*
X109478735Y-93583340D01*
X109355732Y-93665528D01*
X109355731Y-93665529D01*
X109355730Y-93665529D01*
X109219059Y-93722140D01*
X109073968Y-93751000D01*
X108926032Y-93751000D01*
X108780941Y-93722140D01*
X108644270Y-93665529D01*
X108644269Y-93665529D01*
X108644268Y-93665528D01*
X108521265Y-93583340D01*
X108416660Y-93478735D01*
X108334472Y-93355732D01*
X108277860Y-93219059D01*
X108249000Y-93073967D01*
X108249000Y-92926033D01*
X108277860Y-92780941D01*
X108334472Y-92644268D01*
X108416660Y-92521265D01*
X108521265Y-92416660D01*
X108644268Y-92334472D01*
X108720707Y-92302810D01*
X108780941Y-92277860D01*
X108926032Y-92249000D01*
X109073968Y-92249000D01*
X109219059Y-92277860D01*
X109219059Y-92277860D01*
G37*
G36*
X116693665Y-92252622D02*
G01*
X116767222Y-92259867D01*
X116908786Y-92302810D01*
X117039252Y-92372546D01*
X117069040Y-92396992D01*
X117153607Y-92466393D01*
X117223008Y-92550960D01*
X117247454Y-92580748D01*
X117317190Y-92711214D01*
X117360133Y-92852778D01*
X117374633Y-93000000D01*
X117360133Y-93147222D01*
X117338341Y-93219059D01*
X117317189Y-93288788D01*
X117282322Y-93354019D01*
X117247454Y-93419252D01*
X117223008Y-93449040D01*
X117153607Y-93533607D01*
X117093004Y-93583341D01*
X117039252Y-93627454D01*
X116908786Y-93697190D01*
X116767222Y-93740133D01*
X116693665Y-93747378D01*
X116656888Y-93751000D01*
X116583112Y-93751000D01*
X116546335Y-93747378D01*
X116472778Y-93740133D01*
X116331214Y-93697190D01*
X116200748Y-93627454D01*
X116146996Y-93583341D01*
X116086393Y-93533607D01*
X116016992Y-93449040D01*
X115992546Y-93419252D01*
X115957678Y-93354019D01*
X115922811Y-93288788D01*
X115901659Y-93219059D01*
X115879867Y-93147222D01*
X115865367Y-93000000D01*
X115879867Y-92852778D01*
X115922810Y-92711214D01*
X115992546Y-92580748D01*
X116016992Y-92550960D01*
X116086393Y-92466393D01*
X116170960Y-92396992D01*
X116200748Y-92372546D01*
X116331214Y-92302810D01*
X116472778Y-92259867D01*
X116546335Y-92252622D01*
X116583112Y-92249000D01*
X116656888Y-92249000D01*
X116693665Y-92252622D01*
X116693665Y-92252622D01*
G37*
G36*
X122023665Y-91882622D02*
G01*
X122097222Y-91889867D01*
X122238786Y-91932810D01*
X122369252Y-92002546D01*
X122399040Y-92026992D01*
X122483607Y-92096393D01*
X122553008Y-92180960D01*
X122577454Y-92210748D01*
X122577455Y-92210750D01*
X122626663Y-92302810D01*
X122647190Y-92341214D01*
X122690133Y-92482778D01*
X122704633Y-92630000D01*
X122690133Y-92777222D01*
X122647190Y-92918786D01*
X122577454Y-93049252D01*
X122557171Y-93073967D01*
X122483607Y-93163607D01*
X122399040Y-93233008D01*
X122369252Y-93257454D01*
X122238786Y-93327190D01*
X122097222Y-93370133D01*
X122023665Y-93377378D01*
X121986888Y-93381000D01*
X121913112Y-93381000D01*
X121876335Y-93377378D01*
X121802778Y-93370133D01*
X121661214Y-93327190D01*
X121530748Y-93257454D01*
X121500960Y-93233008D01*
X121416393Y-93163607D01*
X121342829Y-93073967D01*
X121322546Y-93049252D01*
X121252810Y-92918786D01*
X121209867Y-92777222D01*
X121195367Y-92630000D01*
X121209867Y-92482778D01*
X121252810Y-92341214D01*
X121273338Y-92302810D01*
X121322545Y-92210750D01*
X121322546Y-92210748D01*
X121346992Y-92180960D01*
X121416393Y-92096393D01*
X121500960Y-92026992D01*
X121530748Y-92002546D01*
X121661214Y-91932810D01*
X121802778Y-91889867D01*
X121876335Y-91882622D01*
X121913112Y-91879000D01*
X121986888Y-91879000D01*
X122023665Y-91882622D01*
X122023665Y-91882622D01*
G37*
G36*
X133166823Y-89941313D02*
G01*
X133327242Y-89989976D01*
X133459906Y-90060886D01*
X133475078Y-90068996D01*
X133604659Y-90175341D01*
X133711004Y-90304922D01*
X133711005Y-90304924D01*
X133790024Y-90452758D01*
X133838687Y-90613177D01*
X133855117Y-90780000D01*
X133838687Y-90946823D01*
X133790024Y-91107242D01*
X133719114Y-91239906D01*
X133711004Y-91255078D01*
X133604659Y-91384659D01*
X133475078Y-91491004D01*
X133475076Y-91491005D01*
X133327242Y-91570024D01*
X133166823Y-91618687D01*
X133041804Y-91631000D01*
X132958196Y-91631000D01*
X132833177Y-91618687D01*
X132672758Y-91570024D01*
X132524924Y-91491005D01*
X132524922Y-91491004D01*
X132395341Y-91384659D01*
X132288996Y-91255078D01*
X132280886Y-91239906D01*
X132209976Y-91107242D01*
X132161313Y-90946823D01*
X132144883Y-90780000D01*
X132161313Y-90613177D01*
X132209976Y-90452758D01*
X132288995Y-90304924D01*
X132288996Y-90304922D01*
X132395341Y-90175341D01*
X132524922Y-90068996D01*
X132540094Y-90060886D01*
X132672758Y-89989976D01*
X132833177Y-89941313D01*
X132958196Y-89929000D01*
X133041804Y-89929000D01*
X133166823Y-89941313D01*
X133166823Y-89941313D01*
G37*
G36*
X140786823Y-89941313D02*
G01*
X140947242Y-89989976D01*
X141079906Y-90060886D01*
X141095078Y-90068996D01*
X141224659Y-90175341D01*
X141331004Y-90304922D01*
X141331005Y-90304924D01*
X141410024Y-90452758D01*
X141458687Y-90613177D01*
X141475117Y-90780000D01*
X141458687Y-90946823D01*
X141410024Y-91107242D01*
X141339114Y-91239906D01*
X141331004Y-91255078D01*
X141224659Y-91384659D01*
X141095078Y-91491004D01*
X141095076Y-91491005D01*
X140947242Y-91570024D01*
X140786823Y-91618687D01*
X140661804Y-91631000D01*
X140578196Y-91631000D01*
X140453177Y-91618687D01*
X140292758Y-91570024D01*
X140144924Y-91491005D01*
X140144922Y-91491004D01*
X140015341Y-91384659D01*
X139908996Y-91255078D01*
X139900886Y-91239906D01*
X139829976Y-91107242D01*
X139781313Y-90946823D01*
X139764883Y-90780000D01*
X139781313Y-90613177D01*
X139829976Y-90452758D01*
X139908995Y-90304924D01*
X139908996Y-90304922D01*
X140015341Y-90175341D01*
X140144922Y-90068996D01*
X140160094Y-90060886D01*
X140292758Y-89989976D01*
X140453177Y-89941313D01*
X140578196Y-89929000D01*
X140661804Y-89929000D01*
X140786823Y-89941313D01*
X140786823Y-89941313D01*
G37*
G36*
X122219059Y-88897860D02*
G01*
X122355732Y-88954472D01*
X122478735Y-89036660D01*
X122583340Y-89141265D01*
X122583341Y-89141267D01*
X122665529Y-89264270D01*
X122722140Y-89400941D01*
X122751000Y-89546032D01*
X122751000Y-89693968D01*
X122722140Y-89839059D01*
X122679785Y-89941314D01*
X122665528Y-89975732D01*
X122583340Y-90098735D01*
X122478735Y-90203340D01*
X122355732Y-90285528D01*
X122355731Y-90285529D01*
X122355730Y-90285529D01*
X122219059Y-90342140D01*
X122073968Y-90371000D01*
X121926032Y-90371000D01*
X121780941Y-90342140D01*
X121644270Y-90285529D01*
X121644269Y-90285529D01*
X121644268Y-90285528D01*
X121521265Y-90203340D01*
X121416660Y-90098735D01*
X121334472Y-89975732D01*
X121320216Y-89941314D01*
X121277860Y-89839059D01*
X121249000Y-89693968D01*
X121249000Y-89546032D01*
X121277860Y-89400941D01*
X121334471Y-89264270D01*
X121416659Y-89141267D01*
X121416660Y-89141265D01*
X121521265Y-89036660D01*
X121644268Y-88954472D01*
X121780941Y-88897860D01*
X121926032Y-88869000D01*
X122073968Y-88869000D01*
X122219059Y-88897860D01*
X122219059Y-88897860D01*
G37*
G36*
X140786823Y-87401313D02*
G01*
X140947242Y-87449976D01*
X141079906Y-87520886D01*
X141095078Y-87528996D01*
X141224659Y-87635341D01*
X141331004Y-87764922D01*
X141331005Y-87764924D01*
X141410024Y-87912758D01*
X141458687Y-88073177D01*
X141475117Y-88240000D01*
X141458687Y-88406823D01*
X141410024Y-88567242D01*
X141339114Y-88699906D01*
X141331004Y-88715078D01*
X141224659Y-88844659D01*
X141095078Y-88951004D01*
X141095076Y-88951005D01*
X140947242Y-89030024D01*
X140786823Y-89078687D01*
X140661804Y-89091000D01*
X140578196Y-89091000D01*
X140453177Y-89078687D01*
X140292758Y-89030024D01*
X140144924Y-88951005D01*
X140144922Y-88951004D01*
X140015341Y-88844659D01*
X139908996Y-88715078D01*
X139900886Y-88699906D01*
X139829976Y-88567242D01*
X139781313Y-88406823D01*
X139764883Y-88240000D01*
X139781313Y-88073177D01*
X139829976Y-87912758D01*
X139908995Y-87764924D01*
X139908996Y-87764922D01*
X140015341Y-87635341D01*
X140144922Y-87528996D01*
X140160094Y-87520886D01*
X140292758Y-87449976D01*
X140453177Y-87401313D01*
X140578196Y-87389000D01*
X140661804Y-87389000D01*
X140786823Y-87401313D01*
X140786823Y-87401313D01*
G37*
G36*
X133166823Y-87401313D02*
G01*
X133327242Y-87449976D01*
X133459906Y-87520886D01*
X133475078Y-87528996D01*
X133604659Y-87635341D01*
X133711004Y-87764922D01*
X133711005Y-87764924D01*
X133790024Y-87912758D01*
X133838687Y-88073177D01*
X133855117Y-88240000D01*
X133838687Y-88406823D01*
X133790024Y-88567242D01*
X133719114Y-88699906D01*
X133711004Y-88715078D01*
X133604659Y-88844659D01*
X133475078Y-88951004D01*
X133475076Y-88951005D01*
X133327242Y-89030024D01*
X133166823Y-89078687D01*
X133041804Y-89091000D01*
X132958196Y-89091000D01*
X132833177Y-89078687D01*
X132672758Y-89030024D01*
X132524924Y-88951005D01*
X132524922Y-88951004D01*
X132395341Y-88844659D01*
X132288996Y-88715078D01*
X132280886Y-88699906D01*
X132209976Y-88567242D01*
X132161313Y-88406823D01*
X132144883Y-88240000D01*
X132161313Y-88073177D01*
X132209976Y-87912758D01*
X132288995Y-87764924D01*
X132288996Y-87764922D01*
X132395341Y-87635341D01*
X132524922Y-87528996D01*
X132540094Y-87520886D01*
X132672758Y-87449976D01*
X132833177Y-87401313D01*
X132958196Y-87389000D01*
X133041804Y-87389000D01*
X133166823Y-87401313D01*
X133166823Y-87401313D01*
G37*
G36*
X140786823Y-84861313D02*
G01*
X140947242Y-84909976D01*
X141079906Y-84980886D01*
X141095078Y-84988996D01*
X141224659Y-85095341D01*
X141331004Y-85224922D01*
X141331005Y-85224924D01*
X141410024Y-85372758D01*
X141458687Y-85533177D01*
X141475117Y-85700000D01*
X141458687Y-85866823D01*
X141410024Y-86027242D01*
X141339114Y-86159906D01*
X141331004Y-86175078D01*
X141224659Y-86304659D01*
X141095078Y-86411004D01*
X141095076Y-86411005D01*
X140947242Y-86490024D01*
X140786823Y-86538687D01*
X140661804Y-86551000D01*
X140578196Y-86551000D01*
X140453177Y-86538687D01*
X140292758Y-86490024D01*
X140144924Y-86411005D01*
X140144922Y-86411004D01*
X140015341Y-86304659D01*
X139908996Y-86175078D01*
X139900886Y-86159906D01*
X139829976Y-86027242D01*
X139781313Y-85866823D01*
X139764883Y-85700000D01*
X139781313Y-85533177D01*
X139829976Y-85372758D01*
X139908995Y-85224924D01*
X139908996Y-85224922D01*
X140015341Y-85095341D01*
X140144922Y-84988996D01*
X140160094Y-84980886D01*
X140292758Y-84909976D01*
X140453177Y-84861313D01*
X140578196Y-84849000D01*
X140661804Y-84849000D01*
X140786823Y-84861313D01*
X140786823Y-84861313D01*
G37*
G36*
X133166823Y-84861313D02*
G01*
X133327242Y-84909976D01*
X133459906Y-84980886D01*
X133475078Y-84988996D01*
X133604659Y-85095341D01*
X133711004Y-85224922D01*
X133711005Y-85224924D01*
X133790024Y-85372758D01*
X133838687Y-85533177D01*
X133855117Y-85700000D01*
X133838687Y-85866823D01*
X133790024Y-86027242D01*
X133719114Y-86159906D01*
X133711004Y-86175078D01*
X133604659Y-86304659D01*
X133475078Y-86411004D01*
X133475076Y-86411005D01*
X133327242Y-86490024D01*
X133166823Y-86538687D01*
X133041804Y-86551000D01*
X132958196Y-86551000D01*
X132833177Y-86538687D01*
X132672758Y-86490024D01*
X132524924Y-86411005D01*
X132524922Y-86411004D01*
X132395341Y-86304659D01*
X132288996Y-86175078D01*
X132280886Y-86159906D01*
X132209976Y-86027242D01*
X132161313Y-85866823D01*
X132144883Y-85700000D01*
X132161313Y-85533177D01*
X132209976Y-85372758D01*
X132288995Y-85224924D01*
X132288996Y-85224922D01*
X132395341Y-85095341D01*
X132524922Y-84988996D01*
X132540094Y-84980886D01*
X132672758Y-84909976D01*
X132833177Y-84861313D01*
X132958196Y-84849000D01*
X133041804Y-84849000D01*
X133166823Y-84861313D01*
X133166823Y-84861313D01*
G37*
G36*
X140786823Y-82321313D02*
G01*
X140947242Y-82369976D01*
X141079906Y-82440886D01*
X141095078Y-82448996D01*
X141224659Y-82555341D01*
X141331004Y-82684922D01*
X141331005Y-82684924D01*
X141410024Y-82832758D01*
X141458687Y-82993177D01*
X141475117Y-83160000D01*
X141458687Y-83326823D01*
X141410024Y-83487242D01*
X141339114Y-83619906D01*
X141331004Y-83635078D01*
X141224659Y-83764659D01*
X141095078Y-83871004D01*
X141095076Y-83871005D01*
X140947242Y-83950024D01*
X140786823Y-83998687D01*
X140661804Y-84011000D01*
X140578196Y-84011000D01*
X140453177Y-83998687D01*
X140292758Y-83950024D01*
X140144924Y-83871005D01*
X140144922Y-83871004D01*
X140015341Y-83764659D01*
X139908996Y-83635078D01*
X139900886Y-83619906D01*
X139829976Y-83487242D01*
X139781313Y-83326823D01*
X139764883Y-83160000D01*
X139781313Y-82993177D01*
X139829976Y-82832758D01*
X139908995Y-82684924D01*
X139908996Y-82684922D01*
X140015341Y-82555341D01*
X140144922Y-82448996D01*
X140160094Y-82440886D01*
X140292758Y-82369976D01*
X140453177Y-82321313D01*
X140578196Y-82309000D01*
X140661804Y-82309000D01*
X140786823Y-82321313D01*
X140786823Y-82321313D01*
G37*
G36*
X133166823Y-82321313D02*
G01*
X133327242Y-82369976D01*
X133459906Y-82440886D01*
X133475078Y-82448996D01*
X133604659Y-82555341D01*
X133711004Y-82684922D01*
X133711005Y-82684924D01*
X133790024Y-82832758D01*
X133838687Y-82993177D01*
X133855117Y-83160000D01*
X133838687Y-83326823D01*
X133790024Y-83487242D01*
X133719114Y-83619906D01*
X133711004Y-83635078D01*
X133604659Y-83764659D01*
X133475078Y-83871004D01*
X133475076Y-83871005D01*
X133327242Y-83950024D01*
X133166823Y-83998687D01*
X133041804Y-84011000D01*
X132958196Y-84011000D01*
X132833177Y-83998687D01*
X132672758Y-83950024D01*
X132524924Y-83871005D01*
X132524922Y-83871004D01*
X132395341Y-83764659D01*
X132288996Y-83635078D01*
X132280886Y-83619906D01*
X132209976Y-83487242D01*
X132161313Y-83326823D01*
X132144883Y-83160000D01*
X132161313Y-82993177D01*
X132209976Y-82832758D01*
X132288995Y-82684924D01*
X132288996Y-82684922D01*
X132395341Y-82555341D01*
X132524922Y-82448996D01*
X132540094Y-82440886D01*
X132672758Y-82369976D01*
X132833177Y-82321313D01*
X132958196Y-82309000D01*
X133041804Y-82309000D01*
X133166823Y-82321313D01*
X133166823Y-82321313D01*
G37*
G36*
X122073665Y-81252622D02*
G01*
X122147222Y-81259867D01*
X122288786Y-81302810D01*
X122419252Y-81372546D01*
X122449040Y-81396992D01*
X122533607Y-81466393D01*
X122603008Y-81550960D01*
X122627454Y-81580748D01*
X122697190Y-81711214D01*
X122740133Y-81852778D01*
X122754633Y-82000000D01*
X122740133Y-82147222D01*
X122697190Y-82288786D01*
X122627454Y-82419252D01*
X122603045Y-82448995D01*
X122533607Y-82533607D01*
X122449040Y-82603008D01*
X122419252Y-82627454D01*
X122288786Y-82697190D01*
X122147222Y-82740133D01*
X122073665Y-82747378D01*
X122036888Y-82751000D01*
X121963112Y-82751000D01*
X121926335Y-82747378D01*
X121852778Y-82740133D01*
X121711214Y-82697190D01*
X121580748Y-82627454D01*
X121550960Y-82603008D01*
X121466393Y-82533607D01*
X121396955Y-82448995D01*
X121372546Y-82419252D01*
X121302810Y-82288786D01*
X121259867Y-82147222D01*
X121245367Y-82000000D01*
X121259867Y-81852778D01*
X121302810Y-81711214D01*
X121372546Y-81580748D01*
X121396992Y-81550960D01*
X121466393Y-81466393D01*
X121550960Y-81396992D01*
X121580748Y-81372546D01*
X121711214Y-81302810D01*
X121852778Y-81259867D01*
X121926335Y-81252622D01*
X121963112Y-81249000D01*
X122036888Y-81249000D01*
X122073665Y-81252622D01*
X122073665Y-81252622D01*
G37*
G36*
X140786823Y-79781313D02*
G01*
X140947242Y-79829976D01*
X141079906Y-79900886D01*
X141095078Y-79908996D01*
X141224659Y-80015341D01*
X141331004Y-80144922D01*
X141331005Y-80144924D01*
X141410024Y-80292758D01*
X141458687Y-80453177D01*
X141475117Y-80620000D01*
X141458687Y-80786823D01*
X141410024Y-80947242D01*
X141339114Y-81079906D01*
X141331004Y-81095078D01*
X141224659Y-81224659D01*
X141095078Y-81331004D01*
X141095076Y-81331005D01*
X140947242Y-81410024D01*
X140786823Y-81458687D01*
X140661804Y-81471000D01*
X140578196Y-81471000D01*
X140453177Y-81458687D01*
X140292758Y-81410024D01*
X140144924Y-81331005D01*
X140144922Y-81331004D01*
X140015341Y-81224659D01*
X139908996Y-81095078D01*
X139900886Y-81079906D01*
X139829976Y-80947242D01*
X139781313Y-80786823D01*
X139764883Y-80620000D01*
X139781313Y-80453177D01*
X139829976Y-80292758D01*
X139908995Y-80144924D01*
X139908996Y-80144922D01*
X140015341Y-80015341D01*
X140144922Y-79908996D01*
X140160094Y-79900886D01*
X140292758Y-79829976D01*
X140453177Y-79781313D01*
X140578196Y-79769000D01*
X140661804Y-79769000D01*
X140786823Y-79781313D01*
X140786823Y-79781313D01*
G37*
G36*
X133166823Y-79781313D02*
G01*
X133327242Y-79829976D01*
X133459906Y-79900886D01*
X133475078Y-79908996D01*
X133604659Y-80015341D01*
X133711004Y-80144922D01*
X133711005Y-80144924D01*
X133790024Y-80292758D01*
X133838687Y-80453177D01*
X133855117Y-80620000D01*
X133838687Y-80786823D01*
X133790024Y-80947242D01*
X133719114Y-81079906D01*
X133711004Y-81095078D01*
X133604659Y-81224659D01*
X133475078Y-81331004D01*
X133475076Y-81331005D01*
X133327242Y-81410024D01*
X133166823Y-81458687D01*
X133041804Y-81471000D01*
X132958196Y-81471000D01*
X132833177Y-81458687D01*
X132672758Y-81410024D01*
X132524924Y-81331005D01*
X132524922Y-81331004D01*
X132395341Y-81224659D01*
X132288996Y-81095078D01*
X132280886Y-81079906D01*
X132209976Y-80947242D01*
X132161313Y-80786823D01*
X132144883Y-80620000D01*
X132161313Y-80453177D01*
X132209976Y-80292758D01*
X132288995Y-80144924D01*
X132288996Y-80144922D01*
X132395341Y-80015341D01*
X132524922Y-79908996D01*
X132540094Y-79900886D01*
X132672758Y-79829976D01*
X132833177Y-79781313D01*
X132958196Y-79769000D01*
X133041804Y-79769000D01*
X133166823Y-79781313D01*
X133166823Y-79781313D01*
G37*
G36*
X133166823Y-77241313D02*
G01*
X133327242Y-77289976D01*
X133459906Y-77360886D01*
X133475078Y-77368996D01*
X133604659Y-77475341D01*
X133711004Y-77604922D01*
X133711005Y-77604924D01*
X133790024Y-77752758D01*
X133838687Y-77913177D01*
X133855117Y-78080000D01*
X133838687Y-78246823D01*
X133790024Y-78407242D01*
X133719114Y-78539906D01*
X133711004Y-78555078D01*
X133604659Y-78684659D01*
X133475078Y-78791004D01*
X133475076Y-78791005D01*
X133327242Y-78870024D01*
X133166823Y-78918687D01*
X133041804Y-78931000D01*
X132958196Y-78931000D01*
X132833177Y-78918687D01*
X132672758Y-78870024D01*
X132524924Y-78791005D01*
X132524922Y-78791004D01*
X132395341Y-78684659D01*
X132288996Y-78555078D01*
X132280886Y-78539906D01*
X132209976Y-78407242D01*
X132161313Y-78246823D01*
X132144883Y-78080000D01*
X132161313Y-77913177D01*
X132209976Y-77752758D01*
X132288995Y-77604924D01*
X132288996Y-77604922D01*
X132395341Y-77475341D01*
X132524922Y-77368996D01*
X132540094Y-77360886D01*
X132672758Y-77289976D01*
X132833177Y-77241313D01*
X132958196Y-77229000D01*
X133041804Y-77229000D01*
X133166823Y-77241313D01*
X133166823Y-77241313D01*
G37*
G36*
X140786823Y-77241313D02*
G01*
X140947242Y-77289976D01*
X141079906Y-77360886D01*
X141095078Y-77368996D01*
X141224659Y-77475341D01*
X141331004Y-77604922D01*
X141331005Y-77604924D01*
X141410024Y-77752758D01*
X141458687Y-77913177D01*
X141475117Y-78080000D01*
X141458687Y-78246823D01*
X141410024Y-78407242D01*
X141339114Y-78539906D01*
X141331004Y-78555078D01*
X141224659Y-78684659D01*
X141095078Y-78791004D01*
X141095076Y-78791005D01*
X140947242Y-78870024D01*
X140786823Y-78918687D01*
X140661804Y-78931000D01*
X140578196Y-78931000D01*
X140453177Y-78918687D01*
X140292758Y-78870024D01*
X140144924Y-78791005D01*
X140144922Y-78791004D01*
X140015341Y-78684659D01*
X139908996Y-78555078D01*
X139900886Y-78539906D01*
X139829976Y-78407242D01*
X139781313Y-78246823D01*
X139764883Y-78080000D01*
X139781313Y-77913177D01*
X139829976Y-77752758D01*
X139908995Y-77604924D01*
X139908996Y-77604922D01*
X140015341Y-77475341D01*
X140144922Y-77368996D01*
X140160094Y-77360886D01*
X140292758Y-77289976D01*
X140453177Y-77241313D01*
X140578196Y-77229000D01*
X140661804Y-77229000D01*
X140786823Y-77241313D01*
X140786823Y-77241313D01*
G37*
G36*
X140786823Y-74701313D02*
G01*
X140947242Y-74749976D01*
X141079906Y-74820886D01*
X141095078Y-74828996D01*
X141224659Y-74935341D01*
X141331004Y-75064922D01*
X141331005Y-75064924D01*
X141410024Y-75212758D01*
X141458687Y-75373177D01*
X141475117Y-75540000D01*
X141458687Y-75706823D01*
X141410024Y-75867242D01*
X141339114Y-75999906D01*
X141331004Y-76015078D01*
X141224659Y-76144659D01*
X141095078Y-76251004D01*
X141095076Y-76251005D01*
X140947242Y-76330024D01*
X140786823Y-76378687D01*
X140661804Y-76391000D01*
X140578196Y-76391000D01*
X140453177Y-76378687D01*
X140292758Y-76330024D01*
X140144924Y-76251005D01*
X140144922Y-76251004D01*
X140015341Y-76144659D01*
X139908996Y-76015078D01*
X139900886Y-75999906D01*
X139829976Y-75867242D01*
X139781313Y-75706823D01*
X139764883Y-75540000D01*
X139781313Y-75373177D01*
X139829976Y-75212758D01*
X139908995Y-75064924D01*
X139908996Y-75064922D01*
X140015341Y-74935341D01*
X140144922Y-74828996D01*
X140160094Y-74820886D01*
X140292758Y-74749976D01*
X140453177Y-74701313D01*
X140578196Y-74689000D01*
X140661804Y-74689000D01*
X140786823Y-74701313D01*
X140786823Y-74701313D01*
G37*
G36*
X133166823Y-74701313D02*
G01*
X133327242Y-74749976D01*
X133459906Y-74820886D01*
X133475078Y-74828996D01*
X133604659Y-74935341D01*
X133711004Y-75064922D01*
X133711005Y-75064924D01*
X133790024Y-75212758D01*
X133838687Y-75373177D01*
X133855117Y-75540000D01*
X133838687Y-75706823D01*
X133790024Y-75867242D01*
X133719114Y-75999906D01*
X133711004Y-76015078D01*
X133604659Y-76144659D01*
X133475078Y-76251004D01*
X133475076Y-76251005D01*
X133327242Y-76330024D01*
X133166823Y-76378687D01*
X133041804Y-76391000D01*
X132958196Y-76391000D01*
X132833177Y-76378687D01*
X132672758Y-76330024D01*
X132524924Y-76251005D01*
X132524922Y-76251004D01*
X132395341Y-76144659D01*
X132288996Y-76015078D01*
X132280886Y-75999906D01*
X132209976Y-75867242D01*
X132161313Y-75706823D01*
X132144883Y-75540000D01*
X132161313Y-75373177D01*
X132209976Y-75212758D01*
X132288995Y-75064924D01*
X132288996Y-75064922D01*
X132395341Y-74935341D01*
X132524922Y-74828996D01*
X132540094Y-74820886D01*
X132672758Y-74749976D01*
X132833177Y-74701313D01*
X132958196Y-74689000D01*
X133041804Y-74689000D01*
X133166823Y-74701313D01*
X133166823Y-74701313D01*
G37*
G36*
X140786823Y-72161313D02*
G01*
X140947242Y-72209976D01*
X141079906Y-72280886D01*
X141095078Y-72288996D01*
X141224659Y-72395341D01*
X141331004Y-72524922D01*
X141331005Y-72524924D01*
X141410024Y-72672758D01*
X141458687Y-72833177D01*
X141475117Y-73000000D01*
X141458687Y-73166823D01*
X141410024Y-73327242D01*
X141371070Y-73400120D01*
X141331004Y-73475078D01*
X141224659Y-73604659D01*
X141095078Y-73711004D01*
X141095076Y-73711005D01*
X140947242Y-73790024D01*
X140786823Y-73838687D01*
X140661804Y-73851000D01*
X140578196Y-73851000D01*
X140453177Y-73838687D01*
X140292758Y-73790024D01*
X140144924Y-73711005D01*
X140144922Y-73711004D01*
X140015341Y-73604659D01*
X139908996Y-73475078D01*
X139868930Y-73400120D01*
X139829976Y-73327242D01*
X139781313Y-73166823D01*
X139764883Y-73000000D01*
X139781313Y-72833177D01*
X139829976Y-72672758D01*
X139908995Y-72524924D01*
X139908996Y-72524922D01*
X140015341Y-72395341D01*
X140144922Y-72288996D01*
X140160094Y-72280886D01*
X140292758Y-72209976D01*
X140453177Y-72161313D01*
X140578196Y-72149000D01*
X140661804Y-72149000D01*
X140786823Y-72161313D01*
X140786823Y-72161313D01*
G37*
G36*
X133851000Y-73851000D02*
G01*
X132149000Y-73851000D01*
X132149000Y-72149000D01*
X133851000Y-72149000D01*
X133851000Y-73851000D01*
X133851000Y-73851000D01*
G37*
G36*
X112001000Y-73551000D02*
G01*
X110599000Y-73551000D01*
X110599000Y-71449000D01*
X112001000Y-71449000D01*
X112001000Y-73551000D01*
X112001000Y-73551000D01*
G37*
G36*
X109701000Y-73551000D02*
G01*
X108299000Y-73551000D01*
X108299000Y-71449000D01*
X109701000Y-71449000D01*
X109701000Y-73551000D01*
X109701000Y-73551000D01*
G37*
G36*
X105640216Y-71379879D02*
G01*
X105807088Y-71449000D01*
X105831394Y-71459068D01*
X106003448Y-71574031D01*
X106149769Y-71720352D01*
X106264733Y-71892408D01*
X106343921Y-72083584D01*
X106384290Y-72286534D01*
X106384290Y-72493466D01*
X106343921Y-72696416D01*
X106264733Y-72887592D01*
X106264732Y-72887594D01*
X106149769Y-73059648D01*
X106003448Y-73205969D01*
X105831394Y-73320932D01*
X105831393Y-73320933D01*
X105831392Y-73320933D01*
X105640216Y-73400121D01*
X105437266Y-73440490D01*
X105230334Y-73440490D01*
X105027384Y-73400121D01*
X104836208Y-73320933D01*
X104836207Y-73320933D01*
X104836206Y-73320932D01*
X104664152Y-73205969D01*
X104517831Y-73059648D01*
X104402868Y-72887594D01*
X104402867Y-72887592D01*
X104323679Y-72696416D01*
X104283310Y-72493466D01*
X104283310Y-72286534D01*
X104323679Y-72083584D01*
X104402867Y-71892408D01*
X104517831Y-71720352D01*
X104664152Y-71574031D01*
X104836206Y-71459068D01*
X104860512Y-71449000D01*
X105027384Y-71379879D01*
X105230334Y-71339510D01*
X105437266Y-71339510D01*
X105640216Y-71379879D01*
X105640216Y-71379879D01*
G37*
G36*
X111201000Y-69551000D02*
G01*
X109099000Y-69551000D01*
X109099000Y-67449000D01*
X111201000Y-67449000D01*
X111201000Y-69551000D01*
X111201000Y-69551000D01*
G37*
G36*
X121870443Y-57105519D02*
G01*
X121936627Y-57112037D01*
X122106466Y-57163557D01*
X122262991Y-57247222D01*
X122298729Y-57276552D01*
X122400186Y-57359814D01*
X122483448Y-57461271D01*
X122512778Y-57497009D01*
X122596443Y-57653534D01*
X122647963Y-57823373D01*
X122665359Y-58000000D01*
X122647963Y-58176627D01*
X122596443Y-58346466D01*
X122512778Y-58502991D01*
X122483448Y-58538729D01*
X122400186Y-58640186D01*
X122298729Y-58723448D01*
X122262991Y-58752778D01*
X122106466Y-58836443D01*
X121936627Y-58887963D01*
X121870442Y-58894482D01*
X121804260Y-58901000D01*
X121715740Y-58901000D01*
X121649558Y-58894482D01*
X121583373Y-58887963D01*
X121413534Y-58836443D01*
X121257009Y-58752778D01*
X121221271Y-58723448D01*
X121119814Y-58640186D01*
X121036552Y-58538729D01*
X121007222Y-58502991D01*
X120923557Y-58346466D01*
X120872037Y-58176627D01*
X120854641Y-58000000D01*
X120872037Y-57823373D01*
X120923557Y-57653534D01*
X121007222Y-57497009D01*
X121036552Y-57461271D01*
X121119814Y-57359814D01*
X121221271Y-57276552D01*
X121257009Y-57247222D01*
X121413534Y-57163557D01*
X121583373Y-57112037D01*
X121649557Y-57105519D01*
X121715740Y-57099000D01*
X121804260Y-57099000D01*
X121870443Y-57105519D01*
X121870443Y-57105519D01*
G37*
G36*
X126950443Y-57105519D02*
G01*
X127016627Y-57112037D01*
X127186466Y-57163557D01*
X127342991Y-57247222D01*
X127378729Y-57276552D01*
X127480186Y-57359814D01*
X127563448Y-57461271D01*
X127592778Y-57497009D01*
X127676443Y-57653534D01*
X127727963Y-57823373D01*
X127745359Y-58000000D01*
X127727963Y-58176627D01*
X127676443Y-58346466D01*
X127592778Y-58502991D01*
X127563448Y-58538729D01*
X127480186Y-58640186D01*
X127378729Y-58723448D01*
X127342991Y-58752778D01*
X127186466Y-58836443D01*
X127016627Y-58887963D01*
X126950442Y-58894482D01*
X126884260Y-58901000D01*
X126795740Y-58901000D01*
X126729558Y-58894482D01*
X126663373Y-58887963D01*
X126493534Y-58836443D01*
X126337009Y-58752778D01*
X126301271Y-58723448D01*
X126199814Y-58640186D01*
X126116552Y-58538729D01*
X126087222Y-58502991D01*
X126003557Y-58346466D01*
X125952037Y-58176627D01*
X125934641Y-58000000D01*
X125952037Y-57823373D01*
X126003557Y-57653534D01*
X126087222Y-57497009D01*
X126116552Y-57461271D01*
X126199814Y-57359814D01*
X126301271Y-57276552D01*
X126337009Y-57247222D01*
X126493534Y-57163557D01*
X126663373Y-57112037D01*
X126729557Y-57105519D01*
X126795740Y-57099000D01*
X126884260Y-57099000D01*
X126950443Y-57105519D01*
X126950443Y-57105519D01*
G37*
G36*
X119330443Y-57105519D02*
G01*
X119396627Y-57112037D01*
X119566466Y-57163557D01*
X119722991Y-57247222D01*
X119758729Y-57276552D01*
X119860186Y-57359814D01*
X119943448Y-57461271D01*
X119972778Y-57497009D01*
X120056443Y-57653534D01*
X120107963Y-57823373D01*
X120125359Y-58000000D01*
X120107963Y-58176627D01*
X120056443Y-58346466D01*
X119972778Y-58502991D01*
X119943448Y-58538729D01*
X119860186Y-58640186D01*
X119758729Y-58723448D01*
X119722991Y-58752778D01*
X119566466Y-58836443D01*
X119396627Y-58887963D01*
X119330442Y-58894482D01*
X119264260Y-58901000D01*
X119175740Y-58901000D01*
X119109558Y-58894482D01*
X119043373Y-58887963D01*
X118873534Y-58836443D01*
X118717009Y-58752778D01*
X118681271Y-58723448D01*
X118579814Y-58640186D01*
X118496552Y-58538729D01*
X118467222Y-58502991D01*
X118383557Y-58346466D01*
X118332037Y-58176627D01*
X118314641Y-58000000D01*
X118332037Y-57823373D01*
X118383557Y-57653534D01*
X118467222Y-57497009D01*
X118496552Y-57461271D01*
X118579814Y-57359814D01*
X118681271Y-57276552D01*
X118717009Y-57247222D01*
X118873534Y-57163557D01*
X119043373Y-57112037D01*
X119109557Y-57105519D01*
X119175740Y-57099000D01*
X119264260Y-57099000D01*
X119330443Y-57105519D01*
X119330443Y-57105519D01*
G37*
G36*
X137901000Y-58901000D02*
G01*
X136099000Y-58901000D01*
X136099000Y-57099000D01*
X137901000Y-57099000D01*
X137901000Y-58901000D01*
X137901000Y-58901000D01*
G37*
G36*
X132030443Y-57105519D02*
G01*
X132096627Y-57112037D01*
X132266466Y-57163557D01*
X132422991Y-57247222D01*
X132458729Y-57276552D01*
X132560186Y-57359814D01*
X132643448Y-57461271D01*
X132672778Y-57497009D01*
X132756443Y-57653534D01*
X132807963Y-57823373D01*
X132825359Y-58000000D01*
X132807963Y-58176627D01*
X132756443Y-58346466D01*
X132672778Y-58502991D01*
X132643448Y-58538729D01*
X132560186Y-58640186D01*
X132458729Y-58723448D01*
X132422991Y-58752778D01*
X132266466Y-58836443D01*
X132096627Y-58887963D01*
X132030442Y-58894482D01*
X131964260Y-58901000D01*
X131875740Y-58901000D01*
X131809558Y-58894482D01*
X131743373Y-58887963D01*
X131573534Y-58836443D01*
X131417009Y-58752778D01*
X131381271Y-58723448D01*
X131279814Y-58640186D01*
X131196552Y-58538729D01*
X131167222Y-58502991D01*
X131083557Y-58346466D01*
X131032037Y-58176627D01*
X131014641Y-58000000D01*
X131032037Y-57823373D01*
X131083557Y-57653534D01*
X131167222Y-57497009D01*
X131196552Y-57461271D01*
X131279814Y-57359814D01*
X131381271Y-57276552D01*
X131417009Y-57247222D01*
X131573534Y-57163557D01*
X131743373Y-57112037D01*
X131809557Y-57105519D01*
X131875740Y-57099000D01*
X131964260Y-57099000D01*
X132030443Y-57105519D01*
X132030443Y-57105519D01*
G37*
G36*
X129490443Y-57105519D02*
G01*
X129556627Y-57112037D01*
X129726466Y-57163557D01*
X129882991Y-57247222D01*
X129918729Y-57276552D01*
X130020186Y-57359814D01*
X130103448Y-57461271D01*
X130132778Y-57497009D01*
X130216443Y-57653534D01*
X130267963Y-57823373D01*
X130285359Y-58000000D01*
X130267963Y-58176627D01*
X130216443Y-58346466D01*
X130132778Y-58502991D01*
X130103448Y-58538729D01*
X130020186Y-58640186D01*
X129918729Y-58723448D01*
X129882991Y-58752778D01*
X129726466Y-58836443D01*
X129556627Y-58887963D01*
X129490442Y-58894482D01*
X129424260Y-58901000D01*
X129335740Y-58901000D01*
X129269558Y-58894482D01*
X129203373Y-58887963D01*
X129033534Y-58836443D01*
X128877009Y-58752778D01*
X128841271Y-58723448D01*
X128739814Y-58640186D01*
X128656552Y-58538729D01*
X128627222Y-58502991D01*
X128543557Y-58346466D01*
X128492037Y-58176627D01*
X128474641Y-58000000D01*
X128492037Y-57823373D01*
X128543557Y-57653534D01*
X128627222Y-57497009D01*
X128656552Y-57461271D01*
X128739814Y-57359814D01*
X128841271Y-57276552D01*
X128877009Y-57247222D01*
X129033534Y-57163557D01*
X129203373Y-57112037D01*
X129269557Y-57105519D01*
X129335740Y-57099000D01*
X129424260Y-57099000D01*
X129490443Y-57105519D01*
X129490443Y-57105519D01*
G37*
G36*
X134570443Y-57105519D02*
G01*
X134636627Y-57112037D01*
X134806466Y-57163557D01*
X134962991Y-57247222D01*
X134998729Y-57276552D01*
X135100186Y-57359814D01*
X135183448Y-57461271D01*
X135212778Y-57497009D01*
X135296443Y-57653534D01*
X135347963Y-57823373D01*
X135365359Y-58000000D01*
X135347963Y-58176627D01*
X135296443Y-58346466D01*
X135212778Y-58502991D01*
X135183448Y-58538729D01*
X135100186Y-58640186D01*
X134998729Y-58723448D01*
X134962991Y-58752778D01*
X134806466Y-58836443D01*
X134636627Y-58887963D01*
X134570442Y-58894482D01*
X134504260Y-58901000D01*
X134415740Y-58901000D01*
X134349558Y-58894482D01*
X134283373Y-58887963D01*
X134113534Y-58836443D01*
X133957009Y-58752778D01*
X133921271Y-58723448D01*
X133819814Y-58640186D01*
X133736552Y-58538729D01*
X133707222Y-58502991D01*
X133623557Y-58346466D01*
X133572037Y-58176627D01*
X133554641Y-58000000D01*
X133572037Y-57823373D01*
X133623557Y-57653534D01*
X133707222Y-57497009D01*
X133736552Y-57461271D01*
X133819814Y-57359814D01*
X133921271Y-57276552D01*
X133957009Y-57247222D01*
X134113534Y-57163557D01*
X134283373Y-57112037D01*
X134349557Y-57105519D01*
X134415740Y-57099000D01*
X134504260Y-57099000D01*
X134570443Y-57105519D01*
X134570443Y-57105519D01*
G37*
G36*
X124410443Y-57105519D02*
G01*
X124476627Y-57112037D01*
X124646466Y-57163557D01*
X124802991Y-57247222D01*
X124838729Y-57276552D01*
X124940186Y-57359814D01*
X125023448Y-57461271D01*
X125052778Y-57497009D01*
X125136443Y-57653534D01*
X125187963Y-57823373D01*
X125205359Y-58000000D01*
X125187963Y-58176627D01*
X125136443Y-58346466D01*
X125052778Y-58502991D01*
X125023448Y-58538729D01*
X124940186Y-58640186D01*
X124838729Y-58723448D01*
X124802991Y-58752778D01*
X124646466Y-58836443D01*
X124476627Y-58887963D01*
X124410442Y-58894482D01*
X124344260Y-58901000D01*
X124255740Y-58901000D01*
X124189558Y-58894482D01*
X124123373Y-58887963D01*
X123953534Y-58836443D01*
X123797009Y-58752778D01*
X123761271Y-58723448D01*
X123659814Y-58640186D01*
X123576552Y-58538729D01*
X123547222Y-58502991D01*
X123463557Y-58346466D01*
X123412037Y-58176627D01*
X123394641Y-58000000D01*
X123412037Y-57823373D01*
X123463557Y-57653534D01*
X123547222Y-57497009D01*
X123576552Y-57461271D01*
X123659814Y-57359814D01*
X123761271Y-57276552D01*
X123797009Y-57247222D01*
X123953534Y-57163557D01*
X124123373Y-57112037D01*
X124189557Y-57105519D01*
X124255740Y-57099000D01*
X124344260Y-57099000D01*
X124410443Y-57105519D01*
X124410443Y-57105519D01*
G37*
G36*
X121870442Y-54565518D02*
G01*
X121936627Y-54572037D01*
X122106466Y-54623557D01*
X122262991Y-54707222D01*
X122298729Y-54736552D01*
X122400186Y-54819814D01*
X122483448Y-54921271D01*
X122512778Y-54957009D01*
X122596443Y-55113534D01*
X122647963Y-55283373D01*
X122665359Y-55460000D01*
X122647963Y-55636627D01*
X122596443Y-55806466D01*
X122512778Y-55962991D01*
X122483448Y-55998729D01*
X122400186Y-56100186D01*
X122298729Y-56183448D01*
X122262991Y-56212778D01*
X122106466Y-56296443D01*
X121936627Y-56347963D01*
X121870442Y-56354482D01*
X121804260Y-56361000D01*
X121715740Y-56361000D01*
X121649558Y-56354482D01*
X121583373Y-56347963D01*
X121413534Y-56296443D01*
X121257009Y-56212778D01*
X121221271Y-56183448D01*
X121119814Y-56100186D01*
X121036552Y-55998729D01*
X121007222Y-55962991D01*
X120923557Y-55806466D01*
X120872037Y-55636627D01*
X120854641Y-55460000D01*
X120872037Y-55283373D01*
X120923557Y-55113534D01*
X121007222Y-54957009D01*
X121036552Y-54921271D01*
X121119814Y-54819814D01*
X121221271Y-54736552D01*
X121257009Y-54707222D01*
X121413534Y-54623557D01*
X121583373Y-54572037D01*
X121649558Y-54565518D01*
X121715740Y-54559000D01*
X121804260Y-54559000D01*
X121870442Y-54565518D01*
X121870442Y-54565518D01*
G37*
G36*
X126950442Y-54565518D02*
G01*
X127016627Y-54572037D01*
X127186466Y-54623557D01*
X127342991Y-54707222D01*
X127378729Y-54736552D01*
X127480186Y-54819814D01*
X127563448Y-54921271D01*
X127592778Y-54957009D01*
X127676443Y-55113534D01*
X127727963Y-55283373D01*
X127745359Y-55460000D01*
X127727963Y-55636627D01*
X127676443Y-55806466D01*
X127592778Y-55962991D01*
X127563448Y-55998729D01*
X127480186Y-56100186D01*
X127378729Y-56183448D01*
X127342991Y-56212778D01*
X127186466Y-56296443D01*
X127016627Y-56347963D01*
X126950442Y-56354482D01*
X126884260Y-56361000D01*
X126795740Y-56361000D01*
X126729558Y-56354482D01*
X126663373Y-56347963D01*
X126493534Y-56296443D01*
X126337009Y-56212778D01*
X126301271Y-56183448D01*
X126199814Y-56100186D01*
X126116552Y-55998729D01*
X126087222Y-55962991D01*
X126003557Y-55806466D01*
X125952037Y-55636627D01*
X125934641Y-55460000D01*
X125952037Y-55283373D01*
X126003557Y-55113534D01*
X126087222Y-54957009D01*
X126116552Y-54921271D01*
X126199814Y-54819814D01*
X126301271Y-54736552D01*
X126337009Y-54707222D01*
X126493534Y-54623557D01*
X126663373Y-54572037D01*
X126729558Y-54565518D01*
X126795740Y-54559000D01*
X126884260Y-54559000D01*
X126950442Y-54565518D01*
X126950442Y-54565518D01*
G37*
G36*
X124410442Y-54565518D02*
G01*
X124476627Y-54572037D01*
X124646466Y-54623557D01*
X124802991Y-54707222D01*
X124838729Y-54736552D01*
X124940186Y-54819814D01*
X125023448Y-54921271D01*
X125052778Y-54957009D01*
X125136443Y-55113534D01*
X125187963Y-55283373D01*
X125205359Y-55460000D01*
X125187963Y-55636627D01*
X125136443Y-55806466D01*
X125052778Y-55962991D01*
X125023448Y-55998729D01*
X124940186Y-56100186D01*
X124838729Y-56183448D01*
X124802991Y-56212778D01*
X124646466Y-56296443D01*
X124476627Y-56347963D01*
X124410442Y-56354482D01*
X124344260Y-56361000D01*
X124255740Y-56361000D01*
X124189558Y-56354482D01*
X124123373Y-56347963D01*
X123953534Y-56296443D01*
X123797009Y-56212778D01*
X123761271Y-56183448D01*
X123659814Y-56100186D01*
X123576552Y-55998729D01*
X123547222Y-55962991D01*
X123463557Y-55806466D01*
X123412037Y-55636627D01*
X123394641Y-55460000D01*
X123412037Y-55283373D01*
X123463557Y-55113534D01*
X123547222Y-54957009D01*
X123576552Y-54921271D01*
X123659814Y-54819814D01*
X123761271Y-54736552D01*
X123797009Y-54707222D01*
X123953534Y-54623557D01*
X124123373Y-54572037D01*
X124189558Y-54565518D01*
X124255740Y-54559000D01*
X124344260Y-54559000D01*
X124410442Y-54565518D01*
X124410442Y-54565518D01*
G37*
G36*
X137110442Y-54565518D02*
G01*
X137176627Y-54572037D01*
X137346466Y-54623557D01*
X137502991Y-54707222D01*
X137538729Y-54736552D01*
X137640186Y-54819814D01*
X137723448Y-54921271D01*
X137752778Y-54957009D01*
X137836443Y-55113534D01*
X137887963Y-55283373D01*
X137905359Y-55460000D01*
X137887963Y-55636627D01*
X137836443Y-55806466D01*
X137752778Y-55962991D01*
X137723448Y-55998729D01*
X137640186Y-56100186D01*
X137538729Y-56183448D01*
X137502991Y-56212778D01*
X137346466Y-56296443D01*
X137176627Y-56347963D01*
X137110442Y-56354482D01*
X137044260Y-56361000D01*
X136955740Y-56361000D01*
X136889558Y-56354482D01*
X136823373Y-56347963D01*
X136653534Y-56296443D01*
X136497009Y-56212778D01*
X136461271Y-56183448D01*
X136359814Y-56100186D01*
X136276552Y-55998729D01*
X136247222Y-55962991D01*
X136163557Y-55806466D01*
X136112037Y-55636627D01*
X136094641Y-55460000D01*
X136112037Y-55283373D01*
X136163557Y-55113534D01*
X136247222Y-54957009D01*
X136276552Y-54921271D01*
X136359814Y-54819814D01*
X136461271Y-54736552D01*
X136497009Y-54707222D01*
X136653534Y-54623557D01*
X136823373Y-54572037D01*
X136889558Y-54565518D01*
X136955740Y-54559000D01*
X137044260Y-54559000D01*
X137110442Y-54565518D01*
X137110442Y-54565518D01*
G37*
G36*
X134570442Y-54565518D02*
G01*
X134636627Y-54572037D01*
X134806466Y-54623557D01*
X134962991Y-54707222D01*
X134998729Y-54736552D01*
X135100186Y-54819814D01*
X135183448Y-54921271D01*
X135212778Y-54957009D01*
X135296443Y-55113534D01*
X135347963Y-55283373D01*
X135365359Y-55460000D01*
X135347963Y-55636627D01*
X135296443Y-55806466D01*
X135212778Y-55962991D01*
X135183448Y-55998729D01*
X135100186Y-56100186D01*
X134998729Y-56183448D01*
X134962991Y-56212778D01*
X134806466Y-56296443D01*
X134636627Y-56347963D01*
X134570442Y-56354482D01*
X134504260Y-56361000D01*
X134415740Y-56361000D01*
X134349558Y-56354482D01*
X134283373Y-56347963D01*
X134113534Y-56296443D01*
X133957009Y-56212778D01*
X133921271Y-56183448D01*
X133819814Y-56100186D01*
X133736552Y-55998729D01*
X133707222Y-55962991D01*
X133623557Y-55806466D01*
X133572037Y-55636627D01*
X133554641Y-55460000D01*
X133572037Y-55283373D01*
X133623557Y-55113534D01*
X133707222Y-54957009D01*
X133736552Y-54921271D01*
X133819814Y-54819814D01*
X133921271Y-54736552D01*
X133957009Y-54707222D01*
X134113534Y-54623557D01*
X134283373Y-54572037D01*
X134349558Y-54565518D01*
X134415740Y-54559000D01*
X134504260Y-54559000D01*
X134570442Y-54565518D01*
X134570442Y-54565518D01*
G37*
G36*
X129490442Y-54565518D02*
G01*
X129556627Y-54572037D01*
X129726466Y-54623557D01*
X129882991Y-54707222D01*
X129918729Y-54736552D01*
X130020186Y-54819814D01*
X130103448Y-54921271D01*
X130132778Y-54957009D01*
X130216443Y-55113534D01*
X130267963Y-55283373D01*
X130285359Y-55460000D01*
X130267963Y-55636627D01*
X130216443Y-55806466D01*
X130132778Y-55962991D01*
X130103448Y-55998729D01*
X130020186Y-56100186D01*
X129918729Y-56183448D01*
X129882991Y-56212778D01*
X129726466Y-56296443D01*
X129556627Y-56347963D01*
X129490442Y-56354482D01*
X129424260Y-56361000D01*
X129335740Y-56361000D01*
X129269558Y-56354482D01*
X129203373Y-56347963D01*
X129033534Y-56296443D01*
X128877009Y-56212778D01*
X128841271Y-56183448D01*
X128739814Y-56100186D01*
X128656552Y-55998729D01*
X128627222Y-55962991D01*
X128543557Y-55806466D01*
X128492037Y-55636627D01*
X128474641Y-55460000D01*
X128492037Y-55283373D01*
X128543557Y-55113534D01*
X128627222Y-54957009D01*
X128656552Y-54921271D01*
X128739814Y-54819814D01*
X128841271Y-54736552D01*
X128877009Y-54707222D01*
X129033534Y-54623557D01*
X129203373Y-54572037D01*
X129269558Y-54565518D01*
X129335740Y-54559000D01*
X129424260Y-54559000D01*
X129490442Y-54565518D01*
X129490442Y-54565518D01*
G37*
G36*
X119330442Y-54565518D02*
G01*
X119396627Y-54572037D01*
X119566466Y-54623557D01*
X119722991Y-54707222D01*
X119758729Y-54736552D01*
X119860186Y-54819814D01*
X119943448Y-54921271D01*
X119972778Y-54957009D01*
X120056443Y-55113534D01*
X120107963Y-55283373D01*
X120125359Y-55460000D01*
X120107963Y-55636627D01*
X120056443Y-55806466D01*
X119972778Y-55962991D01*
X119943448Y-55998729D01*
X119860186Y-56100186D01*
X119758729Y-56183448D01*
X119722991Y-56212778D01*
X119566466Y-56296443D01*
X119396627Y-56347963D01*
X119330442Y-56354482D01*
X119264260Y-56361000D01*
X119175740Y-56361000D01*
X119109558Y-56354482D01*
X119043373Y-56347963D01*
X118873534Y-56296443D01*
X118717009Y-56212778D01*
X118681271Y-56183448D01*
X118579814Y-56100186D01*
X118496552Y-55998729D01*
X118467222Y-55962991D01*
X118383557Y-55806466D01*
X118332037Y-55636627D01*
X118314641Y-55460000D01*
X118332037Y-55283373D01*
X118383557Y-55113534D01*
X118467222Y-54957009D01*
X118496552Y-54921271D01*
X118579814Y-54819814D01*
X118681271Y-54736552D01*
X118717009Y-54707222D01*
X118873534Y-54623557D01*
X119043373Y-54572037D01*
X119109558Y-54565518D01*
X119175740Y-54559000D01*
X119264260Y-54559000D01*
X119330442Y-54565518D01*
X119330442Y-54565518D01*
G37*
G36*
X132030442Y-54565518D02*
G01*
X132096627Y-54572037D01*
X132266466Y-54623557D01*
X132422991Y-54707222D01*
X132458729Y-54736552D01*
X132560186Y-54819814D01*
X132643448Y-54921271D01*
X132672778Y-54957009D01*
X132756443Y-55113534D01*
X132807963Y-55283373D01*
X132825359Y-55460000D01*
X132807963Y-55636627D01*
X132756443Y-55806466D01*
X132672778Y-55962991D01*
X132643448Y-55998729D01*
X132560186Y-56100186D01*
X132458729Y-56183448D01*
X132422991Y-56212778D01*
X132266466Y-56296443D01*
X132096627Y-56347963D01*
X132030442Y-56354482D01*
X131964260Y-56361000D01*
X131875740Y-56361000D01*
X131809558Y-56354482D01*
X131743373Y-56347963D01*
X131573534Y-56296443D01*
X131417009Y-56212778D01*
X131381271Y-56183448D01*
X131279814Y-56100186D01*
X131196552Y-55998729D01*
X131167222Y-55962991D01*
X131083557Y-55806466D01*
X131032037Y-55636627D01*
X131014641Y-55460000D01*
X131032037Y-55283373D01*
X131083557Y-55113534D01*
X131167222Y-54957009D01*
X131196552Y-54921271D01*
X131279814Y-54819814D01*
X131381271Y-54736552D01*
X131417009Y-54707222D01*
X131573534Y-54623557D01*
X131743373Y-54572037D01*
X131809558Y-54565518D01*
X131875740Y-54559000D01*
X131964260Y-54559000D01*
X132030442Y-54565518D01*
X132030442Y-54565518D01*
G37*
M02*
