G04 #@! TF.GenerationSoftware,KiCad,Pcbnew,(5.1.4-0)*
G04 #@! TF.CreationDate,2019-09-06T00:12:38-05:00*
G04 #@! TF.ProjectId,attenuverter,61747465-6e75-4766-9572-7465722e6b69,rev?*
G04 #@! TF.SameCoordinates,Original*
G04 #@! TF.FileFunction,Copper,L2,Bot*
G04 #@! TF.FilePolarity,Positive*
%FSLAX46Y46*%
G04 Gerber Fmt 4.6, Leading zero omitted, Abs format (unit mm)*
G04 Created by KiCad (PCBNEW (5.1.4-0)) date 2019-09-06 00:12:38*
%MOMM*%
%LPD*%
G04 APERTURE LIST*
%ADD10C,1.998980*%
%ADD11R,1.800000X1.800000*%
%ADD12C,1.800000*%
%ADD13O,3.240000X2.720000*%
%ADD14O,1.700000X1.700000*%
%ADD15R,1.700000X1.700000*%
%ADD16C,2.130000*%
%ADD17R,1.930000X1.830000*%
%ADD18O,1.400000X1.400000*%
%ADD19C,1.400000*%
%ADD20R,1.600000X1.600000*%
%ADD21O,1.600000X1.600000*%
%ADD22C,0.800000*%
%ADD23C,1.000000*%
G04 APERTURE END LIST*
D10*
X105333800Y-72390000D03*
D11*
X137650000Y-142550000D03*
D12*
X137650000Y-140050000D03*
X137650000Y-137550000D03*
D13*
X130150000Y-135250000D03*
X130150000Y-144850000D03*
D14*
X119220000Y-55460000D03*
X119220000Y-58000000D03*
X121760000Y-55460000D03*
X121760000Y-58000000D03*
X124300000Y-55460000D03*
X124300000Y-58000000D03*
X126840000Y-55460000D03*
X126840000Y-58000000D03*
X129380000Y-55460000D03*
X129380000Y-58000000D03*
X131920000Y-55460000D03*
X131920000Y-58000000D03*
X134460000Y-55460000D03*
X134460000Y-58000000D03*
X137000000Y-55460000D03*
D15*
X137000000Y-58000000D03*
D16*
X112000000Y-144400000D03*
D17*
X112000000Y-133000000D03*
D16*
X112000000Y-136100000D03*
X136000000Y-112100000D03*
D17*
X136000000Y-109000000D03*
D16*
X136000000Y-120400000D03*
X112000000Y-112100000D03*
D17*
X112000000Y-109000000D03*
D16*
X112000000Y-120400000D03*
D18*
X125500000Y-113070000D03*
D19*
X125500000Y-105450000D03*
X120400000Y-105450000D03*
D18*
X120400000Y-113070000D03*
D19*
X122000000Y-89620000D03*
D18*
X122000000Y-82000000D03*
X121950000Y-92630000D03*
D19*
X121950000Y-100250000D03*
D18*
X116620000Y-93000000D03*
D19*
X109000000Y-93000000D03*
X128250000Y-113050000D03*
D18*
X128250000Y-105430000D03*
D20*
X133000000Y-73000000D03*
D21*
X140620000Y-90780000D03*
X133000000Y-75540000D03*
X140620000Y-88240000D03*
X133000000Y-78080000D03*
X140620000Y-85700000D03*
X133000000Y-80620000D03*
X140620000Y-83160000D03*
X133000000Y-83160000D03*
X140620000Y-80620000D03*
X133000000Y-85700000D03*
X140620000Y-78080000D03*
X133000000Y-88240000D03*
X140620000Y-75540000D03*
X133000000Y-90780000D03*
X140620000Y-73000000D03*
D22*
X127450000Y-128100000D03*
X105664000Y-128100000D03*
X128000000Y-80600000D03*
X128016000Y-70104000D03*
D23*
X128016000Y-80584000D02*
X128000000Y-80600000D01*
X128016000Y-70104000D02*
X128016000Y-80584000D01*
X127450000Y-128100000D02*
X105664000Y-128100000D01*
M02*
